<?xml version="1.0" encoding="utf-8"?>
<!-- Generator: Adobe Illustrator 19.0.0, SVG Export Plug-In . SVG Version: 6.00 Build 0)  -->
<svg version="1.1" id="Layer_1" xmlns="http://www.w3.org/2000/svg" xmlns:xlink="http://www.w3.org/1999/xlink" x="0px" y="0px"
	 viewBox="58 -58.5 400 400" style="enable-background:new 58 -58.5 400 400;" xml:space="preserve">
<style type="text/css">
	.st0{fill:#FFFFFF;stroke:#000000;stroke-miterlimit:10;}
	.st1{fill:#184182;}
</style>
<g id="Layer_2">
	<rect id="XMLID_109_" x="58" y="-58.5" class="st0" width="400" height="400"/>
</g>
<g id="Layer_1_1_">
	<path id="XMLID_108_" class="st1" d="M402.3,115.5c2.7,7.2,7.8,9.9,11.8,8c-8.9-1-1.7-16.3-13.2-16.3c-0.7,0-1.3,0.1-1.9,0.2
		c-1.9-2.1-4.1-2.9-7.4-2.9c-4.8,0-13.3,4.7-13.3,14.4c0,20.8,24.3,22.7,24.3,41.1c0,5.4-4.1,8.7-8.7,8.7c-4,0-7.2-4.5-10.8-11.7
		c-1.6-3.4-5.1-8-8.8-12.9c1.1,0.8,2.3,1.3,3.5,1.3c1.3,0,2.5-0.4,3.4-1.2c0.9-0.9,1.4-2,1.4-3.3v-0.2c0-1.7-0.7-3.4-1.9-4.7
		c-1.3-1.3-3-2.2-4.8-2.2c-1.2-0.1-2.4,0.3-3.3,1.2c-1,0.8-1.5,2-1.5,3.3v0.1c0,0.7,0.1,1.4,0.4,2.2c-5.2-6.8-10-13.5-10-17.2
		c0-3.3,2.2-6,5-9.4c0.1,0,1,0.5,1,0.5l0.7-0.8c1-1,3-3.3,7.1-7.7l1.3-1.3l-2.7-2.1c0.7-1.6,1.3-3.3,1.7-5.2c0.8,3.4,2.5,5.6,5,4.8
		c-1.6-3.4,1.6-8.1-0.5-16.6c1.9,3.3,4.8,5,6.9,4.4c-5.3-4.7,1.6-11.4-5.4-21.6c2.3,0.7,3.9,0.2,4.8-0.8c-6.3-0.8-3.4-8.9-14.6-12
		c2.8-0.5,4.5-2.1,4-3.5c-2.9,2.1-5.6-4-15.2-3.9c-0.6-3.6-4-7.4-7.7-9.3c0.7,2.9,0,5.4-0.7,7.5l-31.7-31.1
		c-0.8-0.8-1.3-1.1-1.6-0.7c-0.4,0.4-0.2,0.8,0.2,1.6l27.2,34c-2.1,0.7-4.1,1.6-6.2,2.4c-1.3,0.4-2.3,1.8-2.3,3.5
		c-5.1,2.4-9.5,5.6-11.7,7.6c-1.7,1.4-3,1.8-1.4,5.2c0.5,1.3-1.2,4.6,2.7,2.2c2.7-1.6,8.5-4.7,9.3-2.7c0.5,1-2.4,2.4-4.4,3.1
		c-2.1,0.7-4.2,2.3-3.9,3c0.4,0.8,1.9,0,1.9,0.8c0.1,0.8,0.8,1.7,1.6,1.7c0.8,0,1.8-1.7,2.4-1.2c0.7,0.6-0.2,4.4-1,5.2
		c3.1-0.4,5.1-3.3,5.2-5.6c0-2.3,0.7-2.8,1.2-3.1c0.5-0.4,1,2.4,0.4,4.1c1.6-0.4,3.3-2.4,3-6.4c0.8-0.7,1.7-1.2,2.3-1.2
		c1.1,0,3.1,2.9,6,2.9c5.3,0,8.3-4.4,8.7-6.4c0.2-1.7,0.1-3.3-0.7-4.5c1.8,1.6,2.4,4,2.4,5.8c0,7.6-13.4,11.1-18.9,16.4
		c-0.2,0.1-0.5,0.4-0.7,0.6l-6.3-2.5l-0.4,1.5c0,0-0.1,0.4-0.4,1.2c-0.7,2.2-2.1,6.6-2.9,9.2l-0.4,1.1l0.6,0.4
		c-3.7,5-6.8,10.5-7.5,16.2c-1.4-1.5-3-2.8-4.6-4.1c0.2-0.6,0.4-1.2,0.4-1.8c0.1-1.6-0.4-3.2-1.5-4.5c-0.8-0.8-1.8-1.3-2.9-1.4
		c-1.2,0-2.3,0.4-3.1,1.2l-0.5,0.5c-0.3-0.1-0.5-0.3-0.7-0.5c-2.1-1.6-4.6-3.5-6.2-5.2c-0.7-0.7-1.3-1.1-2.8-1.1
		c-0.5,0-1.8-0.1-2.8-0.1s-1.5,0.7-2.5,1.7c-0.5,0.4-1.9,1.6-3.6,2.8c0.8,0.8,1.6,1.7,2.3,2.4c0.4,0.5,0.8,1,1.2,1.5
		c0.5-0.4,0.8-0.6,1.1-0.8c0.7-0.5,1.5-0.8,2.3-0.7c0.8,0,2.1,0.7,2.8,1.8c0.6,0.8,5.7,7.6,9.9,12.3c-0.5,0.1-0.9,0.3-1.3,0.5
		c-1.8,0.7-5.9,0.6-7.7,0.5c-1.8-0.2-2.1-0.7-3.4,1.3c-0.5,0.8-1.1,1.6-1.7,2.3c-0.6,0.7-1.1,1.6,0.2,3.7c1.8,3.1,6.5,11.5,8.1,15.2
		c1.5,3.7,3.3,4.4,6.3,5.6c2.9,1.2,8,4.1,8.5,4.7l0.2-2.9c-0.8-0.8-3.7-1.9-4.7-2.3c-1.1-0.4-1.3-0.8-0.1-0.8c1.3,0,4.8,1.3,7.4,2.3
		c-0.8-2.8-3.5-5.9-5.1-7.6c-2.2-0.6-4.2-0.6-5.2,0.1c0.1,0.5-0.4,1.3-1.2,1.3c-0.7,0-1.3-0.7-1.1-1.6c0.2-0.8,1.6-1.1,1.3-2.7
		c-0.4-1.7-2.3-1.9-3.6-2.1c-1.8-2.7-3.9-6.4-4.8-8c-1-1.6-0.4-2.4,0.2-2.9c1.6-1.3,4.8,0.6,11.2,1.1c2.2,0.1,5.1,0.2,8,0.4
		c0.8,7.5,3.7,14.5,14.1,17.2c5.1,1.2,10.4,5,12.2,9.8c-20.8-0.4-24,7.7-24,15.3c0,8.7,7.4,8.2,7.4,14.7c0,5.7-17.5,8-22.7,8.7
		c-4.5,0.7-7,1.7-9.2,3.9s-4.3,4.2-8.2,8.1c0,0,1.7,0.4,3.3,0.3l3-3.8c0.8-1.3,1.4-2.4,2.1-2.3c0.5,0.1,0.1,1.1-0.5,2.4l-2.4,4.1
		c10.1,0.7,10.9-3,10.9-4.6s-2.5-2.7-1.1-3.6s2.7-0.4,3.9,1.1c1.2,1.3,1.6,2.5,4.5,1.4c0,0,22.2-9.3,25-10.5
		c2.5-1.2,1.8-2.3,0.4-3.5c-1.7-1.5-1.9-3.6-1.9-6c0-6.6,4-8.7,11.2-8.6c-0.1,1.1-0.1,2.2-0.1,3.1c0,10.6,15.8,20.9,20.2,20.9
		c1.9,0,4.5-1.4,4.7,4.8c0.1,4.7,1,8,0.1,13.4c-0.8,5.4-2.4,6.2-5.6,8.5c-3.3,2.3-6.3,9.4-7.7,11c1.4,0.8,3,1,4.2-2.4
		c1-2.9,2.2-5,3.4-5.7c-1.2,3.1-2.2,7.8-2.8,9.2c4.1,0.7,10.6-2.9,10.6-5.8s-2.3-2.7-2.3-4.6c0-0.8,1.1-1.8,2.3-1.8
		c1.7,0,2.9,1.3,3,1.9c1.8-1,2.9-2.8,2.9-6.9c-0.1-1.7-0.1-3.4-0.2-5.1c0.1,0.2,0.3,0.4,0.4,0.6c0.9,1.2,2.2,2,3.7,2.1
		c1.4,0.1,3-0.2,4.5-1.2c1.6-1.1,2.7-2.5,3-4.2c0-0.4,0.1-0.7,0.1-1.1c0-0.9-0.3-1.7-0.7-2.4c-0.7-1.1-1.8-1.7-3-2.1
		c-1.7-0.4-3.5,0.1-5.2,1.2c-1.4,0.8-2.5,2.3-2.9,3.9c-0.4-5.8-0.7-11.1-0.6-13.3c0.3-3.3,0.4-4.7-0.7-5.2s-2.3,1.3-3.9,1.3
		c-1.4,0-6.2-4.3-6.2-8.8c0-4.6,4.8-10.4,4.7-16.7c-0.1-1.9,1.1-2.9,1.8-1.2c1,2.2,2.4,5.1,4.5,7.4c-1.3,7.9,7.4,15.5,14.4,9.8
		c-3.5,0.5-5.9-2.5-7.4-5.7c0.6,0.1,1.2,0.1,1.8,0.1h1.1c2.5,3,10.4,2.8,12.4-4.8c-1.3,1.6-4.2,2.8-6.3,2.5c2.9-2.3,4.6-6,4.6-10.1
		c0-19.8-24.2-22.1-24.2-40.2c0-6.6,5.9-11,9.9-11c1.6,0,2.8,0.5,3.8,1.2c-1.6,1.6-2.4,4-2.2,6.9c0.6,14.3,23.9,13.5,24.2,20.4
		C420.4,126.2,403,129.5,402.3,115.5 M340.3,60.7c1.1-2.2,0-5.4,4-5.4c1.9,0,3.6,1.9,5.9,2.7C346.4,58.3,343,59.1,340.3,60.7
		 M319,104.5c-0.1,1.1-0.6,2.1-1.3,2.9c-0.4,0.4-0.9,0.6-1.4,0.6c-1.3-0.1-2.4-1.7-2.4-3.5v-0.2c0-1.1,0.4-2.1,1.2-2.9
		c0.4-0.2,0.8-0.6,1.6-0.6c0.7,0.1,1.2,0.5,1.5,0.8C318.7,102.4,319,103.4,319,104.5 M387.9,204.7c0.3-1.2,1.1-2.3,2.2-2.9
		c1.1-0.7,2.4-1.1,3.5-0.8c0.5,0.1,1.2,0.4,1.7,1.1s0.5,1.4,0.4,2.1c-0.2,1.1-1.1,2.2-2.2,2.9c-1.9,1.3-4.4,1.2-5.2-0.2
		C387.8,206.2,387.7,205.4,387.9,204.7 M373.4,138.3c0-0.6,0.1-1.3,0.7-1.9c0.6-0.4,1.2-0.6,1.9-0.6c1.1,0,2.4,0.6,3.3,1.6
		c1,1,1.4,2.3,1.4,3.4c0,0.7-0.3,1.4-0.8,1.8c-0.5,0.5-1.1,0.7-1.8,0.7c-1.3-0.1-2.5-0.7-3.3-1.7
		C373.9,140.7,373.4,139.5,373.4,138.3 M333.9,93.3c1.1-3.5,3.1-10.5,3.1-10.5l3.7,1.5c-1.1,0.4-2.4,1.4-3.5,2.5
		c1.1,0.4,2.3,0.3,3.3-0.2l-1.4,3.6c-0.4-0.6-1.3-1.9-2.4-2.2c-0.7,3,1.1,4.1,2.5,4.8c2.2,1.1,3.6,1.3,4.2,0.2
		c0.7-1.2-0.7-3-2.7-2.2c-0.1-1.9,1-3,2.2-3c1,0,1.8,1,2.1,2.2c-0.1-3.1,1.3-5.6,4.2-6.4c1.1,3,0.3,5.1-2.1,7.3
		c1.2-0.5,2.5-0.4,3,0.5c0.7,1,0.5,2.4-1.2,3.4c-0.4-2.1-2.7-2.2-3.4-0.8c-0.6,1.2,0.4,2.5,2.4,3.6c2.4,1.3,4.4,0.5,5.6-1.6
		c-0.7-0.2-2.2-0.1-3.4,0.7l2.4-4.6c0.2,1.1,0.7,2,1.6,2.7c0.4-1,0.8-2.8,0.1-4.4l5.3,3c-1.8,0.1-3.1,1.5-3.7,2.3c1,0.4,2,0.4,3,0
		l-2.7,4.5c0-1.6-0.5-2.8-1.2-3.4c-1.1,2.2-0.8,4.2,1.5,5.7c2.1,1.2,3.6,1.4,4.5,0.2c0.7-1.2-0.6-3.1-2.5-2.5c0-1.9,1.1-2.9,2.3-2.8
		c1.1,0,1.8,1.2,2.1,2.5c0.7-3.1,2.1-5,5.2-5.6c0.7,3-0.7,5.4-3.5,6.9c1.2-0.4,2.4-0.1,2.9,0.7c0.7,1.1,0.4,2.5-1.4,3.4
		c-0.3-2.1-2.5-2.4-3.3-1.2c-0.6,1.1,0.4,2.2,2.4,3.6c1.3,0.8,3.1,1.8,5.3-0.2c-0.7-0.8-2.3-1.1-3-1.1l2.4-3c0,1.2,0.7,2.4,1.4,2.9
		c0.4-1.5,0.6-3.1,0.5-4.2l3,2.4c0,0-5,5.3-7.4,8.1L333.9,93.3z M366.5,175.6c-1.3,1.9-3.6,2.5-5.1,1.6c-1.4-1.1-1.6-3.5-0.2-5.3
		c1.3-1.8,3.5-2.5,5.1-1.5C367.7,171.4,367.8,173.8,366.5,175.6 M376,160.6c-1.3,1.8-3.6,2.5-5.1,1.4s-1.6-3.4-0.3-5.3
		c1.3-1.8,3.5-2.4,5-1.4C377.2,156.4,377.2,158.7,376,160.6 M317.4,123.8c-1.2,0.5-2.2,1.3-2.8,2.4c-1.2,2.5,0.4,5.8,3.5,7.4
		c1.7,0.8,3.6,1,5.2,0.4c1.2-0.4,2.2-1.2,2.8-2.3c0.5-1.2,0.5-2.4,0.1-3.6c-0.7-1.7-2-3.1-3.6-3.9
		C320.9,123.4,318.9,123.2,317.4,123.8 M318.9,131.6c-2.1-1-3.1-3-2.4-4.6c0.3-0.6,0.8-1.1,1.5-1.3c1.2-0.4,2.6-0.2,3.7,0.4
		c1.2,0.6,2.1,1.6,2.4,2.7c0.3,0.6,0.3,1.3,0,1.9c-0.3,0.7-0.9,1.2-1.6,1.3C321.4,132.4,320.1,132.2,318.9,131.6 M356.9,189.2
		c-1.2,1.1-1.9,2.9-1.9,4.8v0.1c0,1.8,0.6,3.6,1.8,4.7c0.8,0.9,2,1.5,3.3,1.6c1.2,0,2.4-0.5,3.3-1.4c1.2-1.1,1.9-2.9,2.1-4.8
		c0-1.6-0.5-3.1-1.3-4.4c-0.9-1.2-2.3-2-3.7-2.1C359,187.7,357.8,188.2,356.9,189.2 M360,198.3c-0.7-0.1-1.4-0.4-1.8-1
		c-0.7-0.7-1.2-2.1-1.2-3.4c0-1.3,0.5-2.5,1.3-3.4c0.5-0.5,1.2-0.8,1.9-0.8c1.7,0.1,3,2.1,2.9,4.3c0,1.3-0.5,2.7-1.3,3.4
		C361.4,198,360.7,198.3,360,198.3 M321.9,89.1c-2.4,1.9-3.3,5.2-1.6,7.4c1.6,2.1,5,2.2,7.5,0.2c1.3-1.1,2.2-2.7,2.4-4.1
		c0.1-1.2-0.1-2.4-0.8-3.3c-0.7-0.9-1.8-1.5-2.9-1.6C325,87.5,323.3,88,321.9,89.1 M321.5,93.8c0-1,0.6-2.2,1.7-3
		c0.8-0.7,1.9-1.1,3-1c0.5,0,1.1,0.2,1.6,0.8c0.3,0.5,0.5,1.1,0.4,1.7c-0.2,1.1-0.8,2-1.7,2.7c-1.6,1.2-3.6,1.3-4.6,0.1
		C321.6,94.8,321.5,94.3,321.5,93.8 M366.4,202.6c-1.1,0.7-1.8,1.8-2.1,3c-0.2,1.3,0.2,2.8,1.3,4c1,1.1,2.4,1.9,4,2.2
		c1.6,0.2,3.3,0.1,4.6-0.6c1.3-0.7,2.3-1.9,2.5-3.4c0.5-2.8-1.8-5.6-5.3-6.2C369.7,201.2,367.8,201.6,366.4,202.6 M370.1,209.7
		c-2.3-0.4-4-2.2-3.6-3.7c0.1-0.7,0.5-1.3,1.1-1.7c1.1-0.7,2.4-1,3.6-0.7c2.2,0.5,3.6,1.9,3.6,3.5v0.4
		C374.5,209.1,372.4,210.2,370.1,209.7 M396.5,195.1c0,4.5,3.6,8.1,8.1,8.1s8.1-3.6,8.1-8.1s-3.6-8.1-8.1-8.1
		C400.2,187,396.5,190.6,396.5,195.1 M398.6,195.1c0-3.3,2.8-6,6-6c3.4,0,6,2.8,6,6c0,3.3-2.7,6-6,6
		C401.4,201.1,398.6,198.4,398.6,195.1 M213.3,148.9c0.7-2.1-3-4.4-3.4-7.1c-0.4-2.9-0.1-5.7-3.4-9.5c-3.3-3.7-14.5-15.7-17.9-19.6
		c1,0,2.9-0.5,5,1.5c1.2,1.1,3.6,3.4,5.9,5.7c2.9-7.6,6.6-13.3,11.8-19.2c0.7-0.7,1.3-1.4,2.1-2.2c-1.9,0.6-5,1.1-6.6,2.2
		c-0.1-3.3,0.1-5.9-2.2-8c0.8-4.7,0.1-10.3-10.1-17c5.3,1.2,8.3,6,12.4,2.4c-3.6-0.1-3.7-8.1-16.8-14.6c5-0.1,8.8,8,14.6,3.4
		c-5.4-0.7-7.3-10.4-17-13.4c3.4,0.5,6.9,2.2,9.8-1.8c-3.4,0.7-5.3-2.4-9.1-2.7c1.5-4.2,1.1-6.9-0.4-10c-2.5,0.1-5.2,1-7.1,2.5
		c-0.3-2.4-2.7-2.5-4.8-2.3c0.1,1,0.6,2.4-0.6,2.7c-1.7,0.4-7.5,1.9-12.1,3.6c-4.5,1.8-9.7,5-11.1,6c-1,0.6-1.7-0.8-2.3-1.6
		c-1.6,1.3-3.1,3.1-1.9,5c-2.5,0.1-5.3,0.8-7.6,2.7c0,2.9,2.4,5.8,6,7.4c-6.2,6-0.6,11.6-6,16.8c7.6,0.4,6.3-10.1,10-11.6
		c-0.4,7.4-4.5,8.7-4.5,16.6c0,4.4,2.5,8.8,0.2,11.7c6.3-1.8,4.6-15.7,8.6-19.8c0.7,2.3,0.2,4.7-0.5,7c-2.3,6.5,0.2,15.3-3.3,18.2
		c6.4-0.6,7.3-10.9,12.5-14.7c-4.5,9.3-9.2,29-16,38.9c-10.9,14.7-17.3,32.7-27.4,32.7c-4.3,0-7.7-2.7-7.7-8.3
		c0-16.7,28.8-28.3,28.8-46.2c0-7.9-6.4-11-10.5-11c-2.8,0-6,1.4-8.8,3.7c-1-0.5-2.2-0.8-3.4-0.8c-10.1,0-7.5,18.2-16.3,18.1
		c3.5,1.9,9.5-1.8,13.2-7c-1.6,11.8-18.6,8.7-17.3,23c2.4-11.1,29.6-9.5,29.6-26.5c0-1.8-1-3.5-2.4-4.7c2.2-1.3,4-1.8,5.8-1.8
		c3.3,0,6.3,2.4,6.3,7.2c0,15-28.6,27.6-28.6,45.9c0,3.1,0.8,5.8,2.4,7.7c-2.1,0.8-4.1,0.5-5.8-1.6c-0.2,4.8,6.5,7.7,10.8,5.4
		c1,0.3,2.1,0.5,3,0.6c-1.3,3.5-5.7,4.5-8,4.4c7,5.6,19.2-1.7,18.6-8c5.6-4.5,9.1-12.2,13.1-17.2c-0.3,1.1-0.5,2.2-0.6,3.4
		c-4.1,7.5-8,14.1-9.1,24c-0.8,8.2-5,15.6-10.8,15.6c-1.3,0-3.4-1.7-4.4-0.8c-1.8,1.6-0.1,3.1-0.1,4.7c0,2.3-4.5,4.7-4.5,11.8
		c0,3.3,1.9,7.3,1.2,9.3c1.8-0.8,4.2-4,5.3-8c1.9,9.5-4.1,9.1,0.2,17.6c0.6-2.9,3.4-4,5.1-2.9c1.7,1.2,0.8,2.1-0.4,3.3
		c-1.3,1.3-2.4,7.6,3.3,7.2c-1-0.7-1.1-2.4,1.8-3c4-0.7,5.1,1.1,9.3,1.1c2.7,0,3.4-3.5,5.4-3.5c2.1,0,2.1,1.7,1.3,2.9
		c3.4-1,4-2.8,4-4.7c0-1.8-1.6-3-0.4-3.7c1.2-0.7,5.1,0.1,3.5,3.3c2.1-0.4,3-1.8,3-4.2c0-2.4-2.8-3.9-5.3-3.4
		c-0.5-1.6-2.8-2.4-4.8-2.4c-4.7,0-4,3.7-7.1,3.7c-5.2,0-10.1-6.8-10.1-18c0-6,6.5-7.6,11.1-9.5s12.6-7,17.4-15.1
		c3.9-6.3,4-13.3,3.5-21.5c6.4,3.8,7.2,9.1,7.2,12.9c0,5.1-2.7,7.1-4.7,8.1c-1.8,0.7-2.3,0.5-2.5,1.5c-0.2,1.3,0.6,2.1,1.4,2.4
		c2.3,1.2,1.8,3.5,2.5,5.9c0.6,2.4,2.8,6.3,6.4,9.1c0.4-1.6,0.2-4,0-7c5.1,2.4,1.1,12.4,10.8,12.4c-1.8-1.1-1.3-3.7-0.4-4.1
		c1.1-0.4,2.4,0.7,4.2,3.3c1.9,2.7,1.3,2.4,5.9,2.4c4.6,0,2.5-1.6,5-1.6c2.4,0,2.3,2.8,1,4.8c4.1-1.2,5.3-4.2,3.9-7.5
		c3.6-1.9,5.6,0.8,6,2.8c3.6-3.5,0-7.8-2.8-8.1c0.1-1.3-1.1-2.8-2.5-2.8c-1.6-0.1-3-0.3-4.6-0.1c-1.7,0.1-2.7,2.5-4.6,2.5
		c-6,0-18-11-18-15.8c0-4.7,11.5-7.6,11.5-15c0-9.7-9.5-12.9-17.5-19.1c2.9-3.1,11.1-4,15.8-1.7c0.6-2.7,2.3-1.9,2.9-6.6
		c1.7,4.1,0,7.6,1.7,9.3c1.3-1.9,4.8-1.6,4.6-6.6c1,3.1-1.3,8,1,10c0.5-2.5,2.1-3,3-3s1.8,0.7,1.8,2.2c0,3.9-4.8,2.1-4.8,6.4
		c0,1.8,2.4,2.5,2.4,3.6c0,1.2-1.9,3-4.2,1.6c0.7,1.6,2.3,3.1,4.2,3.1c2.2,0,4.4-1.7,5.2-3.9c1.2,2.8,0.4,5.8-1.7,6.2
		c2.2,1.1,7.1,0.1,6.5-6.3c2.8,0.5,4.2,2.4,2.7,5.8c2.3-0.6,4.3-1.7,4.3-4.2C214.5,152,212.4,151.3,213.3,148.9 M159,62
		c-2.7,0.2-2.5-2.3-7.1-3.4c3.1-0.7,7.4-2.3,11-3.7C163.6,57.9,162.3,61.7,159,62 M177.6,81.7c-3.4,1.5-6-1.6-6.6-3.5
		c-0.7-2.1-1.2-3.7-0.5-4.5c1.5-1.4,1.9-2.7,1.1-4.3c-1-2.2-3.1-1.1-5.6-0.6c1.1-1.9,1.2-3.4-0.4-3.1c-1.8,0.1-1.8,3-2.8,2.8
		c-1-0.4-0.5-2.1-0.5-2.9c0.1-1.3,0.8-1.7,2.1-2.3l9.8-3.6c1.3-0.5,2.2-0.7,3,0.1c0.6,0.6,2.2,1.4,1.7,2.4s-2.5-1.2-4,0
		c-1.2,0.8-0.1,1.8,2.1,2.4c-2.1,1.3-4.4,2.1-3.6,4.3c0.6,1.8,1.7,2.3,3.8,2.3c1.1,0,1.9,1.7,2.8,3.5
		C180.9,76.7,181.2,80.2,177.6,81.7 M178.2,54.4c-2.7,2.1-6.2,0.2-7.7-2.4c3.6-1.6,7.7-3.1,10.6-5C178.5,51,180.3,52.9,178.2,54.4
		 M172.3,29.7c0.7,1.2,1,1.7,1,2.7c-0.8-0.5-1.4-1.1-1.9-1.8l0.4,4.3c0.6-0.7,1-1.3,1.6-1.6c-0.1,2.9-1.2,4-2.2,4.2
		c-1.2,0.2-2.2-0.6-2.3-1.4c-0.3-1.3,0.8-2.1,1.9-1c0.2-2.5-1.9-2.5-2.8-1.4c1.1-2.5,0.6-4.2-1.6-5.6c-1.5,2.4-0.8,3.9,1,5.7
		c-1.7-0.8-3.3,0.6-1.8,2.5c0.4-1.7,1.8-1.2,2.2,0.1c0.4,1.1-0.8,2.5-2.7,3.1c-2.7,0.8-3.5-0.8-4.2-2.4c0.6-0.4,1.9-0.2,3.5,0.7
		l-1.3-4.2c-0.4,1.2-1.3,2.2-2.5,2.7c-0.1-1.3,0.8-3.8,0.8-3.8l-5.2,2.1c0,0,2.4,1.1,3.3,2.1c-1.1,0.5-2.2,0.6-3.7,0l2.2,4
		c0.4-1.8,1.2-2.9,1.9-3c0.6,1.6,1.1,3.4-1.3,4.6c-1.8,1-3.6,0.7-4.2-0.4c-0.6-1.2,0.1-2.5,1.6-1.6c-0.2-2.4-2.4-2.4-3-0.6
		c0-2.5-0.6-4-3.4-4.7c-0.6,2.5,0.2,4.1,2.8,5.1c-1.4-0.1-2.9,1.3-1,3c0-1.6,1.3-1.7,2.1-0.7c0.5,0.9,0.3,2.1-0.6,2.7
		c-0.8,0.5-2.4,0.5-4.6-1.4c0.7-0.3,1.3-0.1,2.3,0l-2.8-3.4c0.1,1.2,0.1,2.1-0.1,2.7c-0.6-0.7-0.8-1.2-1.1-2.5l-2.2,1.8
		c2.1,1.2,4.4,3.1,7.1,7c2.9-1.8,8.2-4.4,11.5-5.7c3.3-1.3,8.7-3.3,12.1-4c-0.7-4.6-0.4-7.6,0.3-9.9L172.3,29.7z M150.5,23.9
		l1.6,3.3l1.8-2.3c0.1,0,0.2,0.1,0.2,0.1c0.2,1.1,0.2,3,0.2,4.1c0,1.3,1.1,2.4,2.4,2.4s2.4-1.1,2.4-2.4c0-0.9-0.5-1.7-1.3-2.1
		c-1-0.7-1.9-1.7-2.7-2.4c0.1-0.1,0.1-0.2,0.1-0.4l3.1,0.4l-1.2-3.4l-2.4,2.1c0-0.1,0-0.1-0.1-0.1v-3.7l-3.3,1.2l2.2,2.7
		c-0.1,0-0.1,0.1-0.1,0.2L150.5,23.9z M162.5,26.4c0.7-0.7,0.7-1.9,0-2.5c-0.6-0.8-1.8-0.9-2.5-0.2l-0.1,0.1c-0.7,0.7-0.7,1.9,0,2.7
		c0.6,0.7,1.7,0.9,2.4,0.3C162.3,26.6,162.4,26.5,162.5,26.4 M166.7,23.3c0.7-0.7,0.7-1.9,0-2.7c-0.7-0.7-1.9-0.7-2.7,0
		c-0.7,0.7-0.7,1.9,0,2.7C164.8,24,166,24,166.7,23.3 M171.7,24.1c0.7-0.7,0.7-1.9,0-2.7c-0.7-0.7-1.9-0.7-2.7,0
		c-0.7,0.7-0.7,1.9,0,2.7C169.7,24.8,170.9,24.8,171.7,24.1 M172.1,28.1c0.7,0.7,1.8,0.7,2.7,0c0.7-0.7,0.7-1.9,0-2.7
		c-0.8-0.7-2.1-0.7-2.7,0c-0.7,0.6-0.9,1.7-0.3,2.4C172,27.9,172,28,172.1,28.1 M150.8,31.6c1.1,0,1.9-0.8,1.9-1.9l0,0
		c0-1-0.8-1.8-1.9-1.8c-1,0-1.8,0.8-1.8,1.8C148.9,30.7,149.8,31.6,150.8,31.6 M145.8,31.8c1.1,0,1.9-0.7,1.9-1.8
		c0-1.1-0.8-1.9-1.9-1.9c0,0,0,0-0.1,0c-1,0-1.8,0.8-1.8,1.9C144,31.1,144.8,31.8,145.8,31.8 M144.7,34.1c0-1.1-0.8-1.9-1.8-1.9
		c-1.1,0-1.9,0.8-1.9,1.9c0,0,0,0,0,0.1c0,1,0.8,1.8,1.9,1.8C143.9,35.9,144.7,35.1,144.7,34.1 M145.4,39.1c0-1.1-0.9-1.9-1.9-1.9
		s-1.8,1-1.8,1.9c0,1.1,0.8,1.8,1.8,1.8C144.6,40.9,145.4,40.2,145.4,39.1 M270.6,173.8c0,0.1,0.2,0.3,0.5,0.4
		c3,0.8,6.4-1.3,8.2-0.8c-2.3-0.8-3.9,0.6-6,0.1c1.3,0,2.7-0.2,2.8-0.6c-1.1,0.6-4-0.5-5.2,0.2c0,0.1-0.1,0.1-0.2,0.2
		c-0.8,0.1-1.7,0.7-1.7,1.3c0,2.1,7.6,0.5,7.6,1.1c0,0.5-1.4,1.1-3.5,1.1c-1.4,0-4.1-1.1-7.5-0.2c0.4-0.6,1-1.4,0.7-1.8
		c0.2-0.1,0.4-0.4,0.4-0.5c-0.1-0.2-0.3-0.2-0.5-0.4c0.1-0.1,0-0.2-0.1-0.4c0,0-0.1-0.2-0.1-0.4c-0.2-0.2-0.5-0.3-0.7-0.4
		c-0.2-0.2-0.5-0.2-0.6-0.2h-0.4c-0.2,0-0.4,0-0.4,0.2c-0.1-0.1-0.3-0.2-0.5-0.2c-0.1,0.2-0.2,0.5-0.1,0.8c-0.2,0-0.6,0.6-0.8,0.5
		c0.1,0.1,0.1,0.3,0.2,0.4c-0.1,0.4-0.2,0.8-0.5,0.8c0.1,0.1,0.2,0.2,0.2,0.4c-0.1,0.5-0.2,1.3-0.1,1.8c-0.5-0.5-1.2-1.6-1.6-1.8
		c-0.5-0.4-0.5-0.6-0.5-1s0.1-0.7,0.1-1.1c0,0-0.1-0.2-0.1-0.4c-0.1-0.2-0.4-0.4-0.6-0.4c0.1,0.1,0.2,0.1,0.2,0.4
		c0,0.1-0.1,0.2-0.1,0.2c-0.1,0.1-0.1,0.2,0,0.4v0.2c0,0.1,0,0,0,0c-0.1-0.2-0.2-0.6-0.5-0.7H259c0-0.2-0.2-0.5-0.6-0.1
		c0.1,0,0.3,0,0.3,0.1v0.2c-0.1,0.2,0.1,0.4,0.5,0.4c0,0,0.1,0,0.1,0.1v0.1c-0.6-0.2-0.8,0-0.8,0.2v0.2c-0.1,0.1-0.1,0.4,0.1,0.5
		c0,0,0-0.2,0.1-0.2h0.1l0.1,0.1c0,0,0.1,0,0.4-0.1c0.1,0,0.1,0,0.3,0.1c-0.4,0.4-0.4,0.7,0.1,0.7l0.1,0.1c-0.1,0.6-1,0.5-0.8-0.1
		c-0.5,0.7,0.4,1.3,1,1c0-0.1,0-0.1,0,0s0.1,0.2,0.3,0.2c0-0.1,0-0.1,0.1-0.1c0,0.1,0.1,0.4,0.4,0.4c0-0.1,0-0.2,0.1-0.2
		c0,0-0.1,1,0.8,1.6c0.1,0.5,0.6,0.7,1,0.7c0.2,0.4,0.5,0.7,0.4,0.7s-1.2-0.1-1.5,0s-0.6,0.2-1,0.4h-0.1h0.1c-0.4,0-0.6,0-0.7-0.2
		c-0.1-0.1-0.1-0.2-0.2-0.5c-0.1-0.1-0.2-0.2-0.4-0.2h-0.2c-0.1-0.1-0.5-0.2-0.6-0.1c0.1,0,0.2,0.1,0.4,0.4c-0.1,0-0.1,0.1-0.1,0.1
		c-0.1,0.1,0,0.4,0.6,0.6c0,0,0.1,0,0,0.1c-0.1,0-0.2,0-0.4-0.1c-0.3-0.1-0.3-0.5-0.6-0.2l-0.1,0.1c0,0,0-0.1-0.1-0.1
		c-0.2,0-0.7,0.4-0.5,0.7c0-0.1,0.1-0.2,0.4-0.4v0.2c0.1,0.4,0.2,0.6,0.8,0.1c0.1,0,0.1,0.1,0.1,0.1c-0.1,0.2-0.6,0.5-0.2,0.7
		c0,0,0,0.1,0.1,0.1v0.1c-0.1,0.4,0.4,0.6,0.6,0.6c-0.1-0.1-0.4-0.2-0.2-0.6c0,0.1,0.1,0.1,0.2,0.1c0.3-0.1,0.1-0.6,0.3-0.7
		c0.1,0,0.1,0,0.1,0.1s0.1,0.5,0.5,0.5c0.4-0.1,0.6-0.4,0.5-0.6h0.1c0.1,0.1,0.1,0.2,0.1,0.4c0.1,0,0.3-0.1,0.3-0.2
		c0.1,0.1,0.1,0.5-0.1,0.7c0.1-0.1,0.5-0.2,0.6-0.7c0.1,0.1,0.1,0.1,0.1,0.2c0.2,0,0.5,0,0.8-0.1v0.1c0,0.1,0,0.4,0.1,0.4
		c0,0,0-0.2,0.1-0.2s0,0.5,0.2,0.6c0.1-1,0.6-0.5,1.2-1v0.1c0,0.1-0.1,0.1-0.3,0.2c0.2,0,1-0.2,1-0.6c0-0.1,0.4-0.5,0.5-1.7h0.4
		c0.7,0,1.1-0.6,1.9-0.7c-0.2,0.2-0.2,0.8-0.2,1.2s0.6,1,0.7,1.1c-0.3,0.1-0.5,0.1-0.6,0.2c-0.6,0.4-0.6-1.1-1.3-0.7
		c-0.1,0-0.2,0.1-0.2,0.1c-0.2,0-0.7,0.4-0.6,0.6c0.1-0.1,0.2-0.2,0.5-0.2v0.1c0,0.1,0,0.2,0.2,0.2c0.1,0,0.1-0.1,0.2-0.1l0.1,0.1
		c0,0.2-1-0.1-0.7,0.6c0,0,0.1,0.1,0.1,0.2c0,0.1,0.1,0.4,0.5,0.2c0,0-0.1-0.1-0.1-0.2h0.1c0.1,0,0.1,0,0.1-0.1c0.1,0,0.1,0,0.1,0.1
		v0.4c0,0.2,0.4,0.5,0.7,0.2c0,0-0.2-0.1-0.4-0.2h0.3V182c0-0.1,0.1-0.1,0.1-0.1h0.1c0.1,0,0.1,0,0.2,0.1c0,0.1,0.2,0.2,0.5,0.1
		c0.5-0.1,0.1-0.5,0.5-0.6h0.2c0.4,0.1,0.7,0.1,0.7,0c0.1-0.2,0.1-0.8-0.4-1.1c-0.1-0.1,0.4-1.6-0.7-2.3c0.5,0.1,2.2,0.4,2.5,0
		c0.5,0.1,1.1,0.4,1.1,0.5c0.1,0.1,0.1,0.2,0,0.4c-0.5,0.2-0.4,0.4-0.6,0.5h-0.1c-0.1-0.1-0.2-0.4-0.4-0.4c-0.3-0.1-0.4-0.1-0.4,0
		c-0.2-0.1-0.6,0-0.7,0.2c0.1,0,0.2-0.1,0.5,0v0.1c0,0,0,0.1,0.1,0.2c-0.2,0-0.7,0-0.6,0.2v0.2c-0.1,0.1-0.2,0.4-0.1,0.6
		c0-0.1,0.1-0.2,0.4-0.4c0,0.1,0,0.1,0.1,0.2c0.1,0.1,0.4-0.2,0.6-0.2c0.1,0,0.1,0.1,0,0.1c-0.2,0.1-0.5,0.2-0.4,0.5
		c0,0,0,0.1,0.1,0.1c-0.1,0.3-0.1,0.5,0.3,0.6v-0.4h0.2c0.5-0.2,0.2-0.6,0.4-0.7c0.2-0.2,0.5,0.2,0.8-0.1c0.1,0,0.1-0.2,0.1-0.4
		v-0.1c0.1,0.2,0.1,0.4,0.4,0.2c-0.3-0.4,0-0.5,0.1-0.6c0,0,0.1-0.1,0.1,0c0.1,0,0.4-0.1,0.6-0.4c-0.2,0.1-0.8-0.2-0.5-0.4
		c0.5-0.2,0.6-0.5,0.4-0.7c-0.4-0.6-1.2-0.6-1.2-1.2h0.7c2.5,0,4.2-0.7,4.2-1.6c-0.1-1.7-7.9,0.1-7.9-1.1
		C269.5,174.3,270,173.9,270.6,173.8 M264.9,174c0.1,0.1,0.6,0.2,0.8,0.4c-0.4,0-0.3,0.2-0.5,0.2C265,174.5,264.9,174.3,264.9,174
		 M264.4,173.8c-0.1,0.1-0.4,0.4-0.6,0.1c-0.1-0.2,0-0.2-0.1-0.6C263.8,173.4,264.3,173.7,264.4,173.8 M263.6,175.5
		c0.1-0.1,0.1-0.2,0.2-0.2c0.1,0,0.3,0,0.3-0.1c0.1-0.2-0.1-0.4-0.3-0.4c0.3-0.1,0.3-0.1,0.3-0.2c-0.1-0.1-0.4,0.1-0.4,0
		s0.1-0.1,0.1-0.2h0.2l0.7,0.4c0.1,0.1,0.1,0.1,0.1,0.2v0.2c-0.1,0-0.1-0.2-0.3-0.2c-0.1-0.1-0.1,0,0,0.2c-0.2-0.1-0.4-0.2-0.5,0
		c0,0.1,0,0.2,0.1,0.4c0,0,0,0.1-0.1,0.4c0,0.1-0.2,0.4-0.5,0.2C263.5,176,263.5,175.6,263.6,175.5 M273,163.1
		c0.1,0.1,0.2,0.2,0.6,0.4c2.9,0.8,6.4-1.5,8.1-0.8c-2.3-0.8-3.7,0.6-6,0.1c1.3,0,2.8-0.4,2.8-0.7c-1,0.7-3.9-0.4-5.1,0.4
		c-0.1,0-0.3,0.1-0.3,0.1c-1.7,0-3,0-3,1.1c0,2.3,6.3,1,8.2,1c1.9,0,1.7,0.1,1.7,0.5c0,0.6-2.2,0.7-3.4,0.7c-1.6,0-6.8-0.8-9.8-0.2
		c0.3-0.5,0.7-1.1,0.5-1.6c0.2-0.1,0.5-0.2,0.5-0.5c-0.1-0.2-0.4-0.2-0.6-0.4c0.1-0.1,0-0.2-0.1-0.4l-0.1-0.4
		c-0.2-0.2-0.4-0.4-0.7-0.5c-0.4-0.2-0.5-0.2-0.7-0.2l-0.4,0.1c-0.1-0.1-0.4-0.1-0.4,0.1c-0.2-0.2-0.4-0.2-0.6-0.2
		c-0.1,0.3-0.1,0.6,0,0.8c-0.4,0-0.6,0.7-0.8,0.7c0.1,0.1,0.1,0.2,0.3,0.2c-0.3,0.4-0.4,1-0.6,1c0.1,0.1,0.2,0.1,0.2,0.2
		c0,0.2-0.1,0.6-0.1,0.8l-0.2-0.1h-0.1c-0.4,0-0.6,0-1.2-0.4c-0.5-0.2-0.5-0.5-0.5-1c0-0.4,0.1-0.7,0.1-1.1c0-0.1,0-0.2-0.1-0.4
		s-0.4-0.5-0.6-0.4c0.1,0,0.2,0.1,0.2,0.4l-0.1,0.1c-0.1,0.1-0.1,0.4,0,0.5v0.2c0,0.1-0.1,0.1-0.1,0c0-0.2-0.1-0.7-0.5-0.7H260
		c0-0.4-0.4-0.6-0.7-0.2c0.1,0,0.2,0.1,0.2,0.1v0.4c0,0.2,0.2,0.4,0.5,0.4c0.1,0,0.1,0.1,0.1,0.1v0.1c-0.5-0.2-0.7,0-0.7,0.3v0.2
		c-0.2,0.1-0.2,0.4,0.1,0.6c0-0.1-0.1-0.2,0.1-0.2v-0.1l0.1,0.1c0.1,0.1,0.1,0,0.4,0c0-0.1,0-0.1,0.1-0.1c0,0.1,0.1,0.1,0.1,0.1
		c0.1,0.1,0.1,0.1,0,0.1c-0.4,0.4-0.3,0.7,0.2,0.7v0.1c0,0.7-0.8,0.6-0.8-0.1c-0.5,0.7,0.4,1.3,1.1,1c0,0.1,0.1,0.2,0.2,0.2
		c0,0,0-0.1,0.1-0.1c0,0.2,0.1,0.5,0.4,0.5c0-0.1,0-0.2,0.1-0.2c0.1,0,0.1-0.4,0.8,0.1c0.1,0.1,0.1,0.2,0.4,0.4l0.5-0.1
		c0,0.4,0.1,1.1,0,1.1s-1-0.1-1.3,0c-0.4,0.4-1.4,0.7-1.8,0.2c-0.1-0.1-0.1-0.4-0.2-0.5c-0.1-0.2-0.2-0.4-0.4-0.4h-0.2
		c-0.1-0.1-0.5-0.1-0.7,0c0.1,0,0.4,0,0.5,0.2c-0.1,0-0.1,0.1-0.1,0.2c-0.1,0.1,0,0.4,0.6,0.6c0,0,0.1,0,0,0.1c0,0-0.2,0-0.4-0.1
		c-0.2-0.1-0.2-0.5-0.6-0.2h-0.2c-0.4,0-0.8,0.4-0.6,0.7l0.4-0.4c0,0.1,0.1,0.2,0.1,0.2c0,0.4,0.2,0.6,0.8,0.1c0.1,0,0.1,0,0.1,0.1
		c-0.1,0.3-0.6,0.6-0.2,0.8l0.1,0.1c-0.1,0.4,0.4,0.7,0.6,0.7c-0.1-0.1-0.4-0.4-0.2-0.6h0.2c0.2-0.1,0.1-0.5,0.2-0.6
		c0.1-0.1,0.1,0,0.1,0c0,0.1,0.1,0.5,0.6,0.5c0.4,0,0.5-0.4,0.5-0.6c0.1,0.1,0.2,0.2,0.2,0.5c0-0.1,0.3-0.1,0.3-0.4
		c0.1,0.2,0.1,0.5-0.1,0.7c0.1,0,0.6-0.2,0.6-0.6c0.1,0,0.1,0.1,0.2,0.1c0.1,0,0.4,0.1,0.8,0v0.5c0-0.1,0.1-0.2,0.3-0.2
		c0.1,0,0,0.4,0.2,0.6c0-1,0.8-0.7,1.4-1.2c0.1,0,0.1,0,0.1,0.1s-0.1,0.2-0.2,0.2c0.6,0.5,1.3-0.5,1.6-1l0.2-0.2
		c0,0.1,0,0.2-0.1,0.4c0.6,0,0.6-0.5,0.8-0.5c2.1,0.1,0.5-1.7,3.7-1.2c0.1,0.1,0.6-0.1,0.7-0.2c-0.1,0.4-0.2,1.2,0.2,1.3
		c0.2,0,0.6,0.2,0.7,0.4c0.1,0,0,0,0,0c-0.2,0-0.4,0.1-0.6,0.2c-0.7,0.4-0.7-1.1-1.5-0.7c0,0-0.1,0-0.2,0.1c-0.2,0-0.6,0.3-0.6,0.6
		c0.1-0.1,0.3-0.2,0.5-0.2v0.1c0,0.1,0,0.2,0.2,0.2s0.2-0.1,0.4-0.1v0.1c0,0.2-0.8-0.1-0.7,0.6c0,0,0.1,0.2,0.3,0.2
		c-0.1,0.2,0.1,0.5,0.5,0.4c0-0.1-0.2-0.2-0.1-0.2h0.1l0.1-0.1v-0.1l0.1,0.1l-0.1,0.1l0.1,0.2c0,0.2,0.4,0.6,0.8,0.4
		c-0.1-0.1-0.5-0.1-0.5-0.2c0.1,0,0.2-0.1,0.2-0.1v-0.2h0.1c0.1-0.1,0.1-0.1,0.2-0.1l0.1,0.1c0,0.1,0.2,0.2,0.5,0.2
		c0.6-0.2,0.1-0.6,0.5-0.7h0.4c0.4,0.1,1,0.1,1.1-0.1c0.1-0.1,0-0.8-0.4-1.1c-0.4-0.1,0-0.5-0.2-0.8c0.4,0.3,0.9,0.4,1.4,0.4
		c1,0,1.6-0.1,2.1-0.4c0.6-0.4,1.2-0.2,1.3-0.1c0.1,0,0.2,0,0.1,0.2c-0.2,0.6-0.1,0.6-0.2,0.8c-0.1,0.2-0.6,0-1,0
		c-0.1,0-0.2,0.1-0.2,0.1c-0.4,0.1-0.7,0.4-0.7,0.6c0.1,0,0.2-0.2,0.5-0.2v0.1c0,0.4,0.4,0.5,0.6,0.2c0.1,0,0.1,0,0.1,0.1
		c-0.2,0.1-0.7,0.5-0.5,0.6l0.1,0.1c0,0.2,0.1,0.5,0.2,0.5c0-0.1,0-0.2,0.1-0.5h0.2c0.2,0,0.2-0.5,0.5-0.6c0.1,0,0.1,0,0.1,0.1
		c-0.2,0.2-0.4,0.5-0.1,0.6h0.2c0,0.2,0.2,0.5,0.6,0.2c-0.1,0-0.2-0.1-0.2-0.2l0.2-0.2c0.3-0.6-0.2-0.6-0.1-0.8c0-0.2,0.5,0,0.7-0.6
		c0-0.1,0-0.2-0.1-0.4h-0.1c0.2,0,0.4,0,0.5-0.2c-0.4,0-0.1-0.4-0.1-0.5v-0.1c0.1-0.1,0.4-0.2,0.4-0.6c-0.2,0.1-0.7,0.4-0.7,0
		c0,0,0.1-0.2-0.4-0.2c-0.7,0-1.7,0-3-0.2c-0.1,0-0.1,0,0,0c1.3-0.1,4-0.4,4-1.2c0-0.7-0.1-1.2-2.4-1.2c-2.3,0-7.5,1-7.5-0.4
		C270.9,162.7,271.9,162.8,273,163.1 M265.6,162.7c-0.3,0.2-0.5,0.4-0.6,0.2c-0.2-0.2,0-0.4-0.2-0.7
		C265,162.5,265.3,162.7,265.6,162.7 M265.9,164.2c0,0,0-0.2-0.1-0.2s-0.1,0-0.1,0.2c-0.1-0.1-0.3-0.1-0.4,0c-0.1,0.2-0.1,0.2,0,0.4
		c0.1,0.1,0,0.2,0,0.4c-0.1,0.2-0.4,0.4-0.6,0.2c-0.2-0.1-0.1-0.4-0.1-0.5c0.1-0.2,0.1-0.4,0.2-0.4c0.1,0.1,0.2,0,0.4-0.1
		c0-0.3-0.1-0.3-0.4-0.4c0.2-0.1,0.2-0.1,0.2-0.2c-0.1-0.1-0.2,0.1-0.4,0c0-0.1,0.1-0.1,0.1-0.2h0.2l0.8,0.4c0,0.1,0.1,0.1,0.1,0.2
		C266.1,163.9,266.1,164.2,265.9,164.2 M266.5,163.7c-0.4-0.1-0.4-0.4-0.4-0.6c0.1,0,0.6,0.2,0.8,0.4
		C266.6,163.5,266.7,163.7,266.5,163.7 M284,156.9v-0.1c0.2-0.2,0.2-0.4,0.2-0.6c-0.1,0.1-0.6,0.4-0.7,0c0,0,0-0.4-0.4-0.2
		c-0.7,0.1-1.5-0.1-2.9-0.2c-0.1,0-0.1,0,0-0.1c1.5-0.1,4-0.2,4-1.2c0-0.7-0.8-1.2-3.3-1.2s-9.9,1-9.9-0.5c0-0.8,2.4-0.5,4.4-0.4
		c0.1,0.1,0.2,0.2,0.5,0.2c3.1,1,6.8-1.5,8.7-0.8c-2.5-0.8-4.1,0.6-6.4,0.1c1.3,0,2.9-0.4,2.9-0.7c-1.1,0.7-4.1-0.5-5.4,0.4
		c0,0-0.1,0.1-0.3,0.1c-2.3,0-5.1-0.2-5.1,1.1c0,2.4,8.6,1.1,10.6,1.1c1.9,0,2.4,0.1,2.4,0.6c0,0.6-2.1,0.7-3.1,0.7
		c-1.9,0-9.9-1.1-13.1-0.1c0.1-0.6,1-1.3,0.5-1.8c0.4-0.1,0.6-0.4,0.6-0.6c-0.2-0.1-0.4-0.2-0.6-0.2c0.1-0.1,0-0.4-0.1-0.5
		c-0.1,0-0.1-0.4-0.2-0.4c-0.2-0.2-0.5-0.4-0.7-0.5c-0.4-0.2-0.6-0.1-0.7-0.2l-0.4,0.1c-0.2,0-0.5,0-0.5,0.1
		c-0.1-0.1-0.4-0.2-0.5-0.2c-0.1,0.2-0.2,0.5-0.1,0.8c-0.2,0-0.6,0.8-0.8,0.7c0.1,0.2,0.1,0.2,0.2,0.2c-0.2,0.5-0.4,1-0.6,1.1
		c0.1,0.1,0.2,0.2,0.4,0.2v0.8l-0.5-0.2h-0.4c-0.1,0-0.2,0-0.4-0.1c-0.4,0-0.7-0.6-1.3-1c-0.5-0.2-0.5-0.5-0.5-1.1
		c0-0.4,0.1-0.7,0.1-1.1c0-0.1,0-0.4-0.1-0.4c0-0.4-0.4-0.5-0.6-0.5c0.1,0.1,0.2,0.1,0.2,0.5c-0.1,0-0.2,0.1-0.2,0.1
		c0,0.1-0.1,0.4,0,0.5c0.1,0,0.1,0,0.1,0.1l-0.1,0.1c0,0.1,0,0,0,0c-0.1-0.2-0.2-0.7-0.5-0.7h-0.2v-0.1c0-0.2-0.4-0.5-0.7-0.1
		c0.1,0,0.2,0,0.4,0.1c0,0.1-0.1,0.2-0.1,0.4s0.3,0.4,0.6,0.4v0.1c0.1,0,0.1,0,0.1,0.1h-0.1c-0.5-0.2-0.7,0-0.7,0.2v0.2
		c-0.3,0.1-0.3,0.5,0.1,0.6c0,0,0-0.2,0.1-0.2h0.1c0,0,0.1,0,0.1,0.1c0,0,0.1,0,0.2-0.1c0.1,0,0.1-0.1,0.2,0h0.1v0.1
		c-0.4,0.4-0.4,0.7,0.1,0.8c0.1,0,0.1,0,0.1,0.1c0,0.7-1,0.5-0.8-0.1c-0.6,0.7,0.4,1.3,1,1h0.1c0,0.1,0.1,0.2,0.2,0.2
		c0,0,0-0.1,0.1-0.1v0.1c0.1,0.1,0.1,0.4,0.4,0.4c0-0.1,0-0.2,0.1-0.2s0.6,1,1.6,1.6c-0.1-0.1,0.4-0.2,0.6-0.4
		c0,0.2,0.1,0.4,0.4,0.5l0.1-0.1c-0.1,0.5,0.5,1,0.4,1s-1.1-0.1-1.3,0c-0.5,0.2-1.7,0.6-1.9,0.2c-0.1-0.2-0.1-0.4-0.2-0.6
		c-0.1-0.1-0.2-0.2-0.4-0.2l-0.2-0.1c-0.3-0.1-0.6-0.1-0.8,0c0.2,0,0.4,0,0.5,0.2c0,0.1-0.1,0.2-0.1,0.2c-0.1,0.1,0,0.4,0.7,0.6v0.1
		c-0.1,0.1-0.2,0.1-0.4,0c-0.4-0.2-0.4-0.5-0.7-0.4c0,0-0.1,0.1-0.2,0.1c-0.4,0-0.8,0.4-0.6,0.7c0-0.1,0.1-0.4,0.4-0.4
		c0,0.1,0.1,0.1,0.1,0.2c0,0.4,0.2,0.6,1,0.1v0.1c-0.1,0.2-0.6,0.6-0.2,0.8c0,0,0.1,0,0.1,0.1c-0.1,0.5,0.4,0.7,0.6,0.7
		c-0.1-0.1-0.2-0.2-0.2-0.6h0.2c0.4-0.1,0.2-0.5,0.4-0.6c0.1-0.1,0.1,0,0.1,0c0,0.1,0.1,0.6,0.5,0.5c0.5,0,0.6-0.4,0.6-0.6
		c0.2,0.1,0.2,0.2,0.2,0.5c0.1,0,0.3-0.1,0.4-0.4c0,0.2,0,0.5-0.2,0.8c0.2-0.1,0.6-0.4,0.7-0.7c0.1,0,0.1,0.1,0.1,0.1h0.1
		c0.1,0.1,0.4,0.1,0.7,0h0.1v0.5c0.1-0.1,0.1-0.2,0.2-0.2c0.1,0,0,0.5,0.2,0.7c0.1-1.1,0.6-0.7,1.3-1.1c0.1-0.1,0.1,0,0.1,0
		l-0.4,0.4c0.2,0.2,1.2-0.5,1.2-0.8c0-0.1,0.4-0.1,0.7-0.1c0.7,0,0.6-0.6,0.8-0.6c4.1,0.6,1.7-1.7,6.4-1.2c0.2,0,0.4-0.2,0.6-0.4
		c-0.2,0.4-0.2,1.3,0.1,1.4c0.2,0,0.7,0.1,0.8,0.3c0.1,0.1,0,0.1,0,0.1c-0.2,0-0.6,0.1-0.6,0.1c-0.7,0.5-0.8-1-1.6-0.7l-0.2,0.1
		c-0.2,0-0.7,0.4-0.6,0.7c0.1-0.2,0.3-0.3,0.5-0.4v0.2c0,0.1,0,0.2,0.2,0.2c0.1,0,0.2-0.1,0.4-0.1v0.1c0,0.2-1-0.1-0.7,0.6l0.1,0.2
		c0,0.2,0.1,0.5,0.6,0.4c0,0-0.3-0.1-0.3-0.2h0.3c0,0,0.1,0,0.1-0.1c0,0,0-0.1,0,0h0.1c0,0-0.1,0.1,0,0.1v0.4c0,0.2,0.4,0.6,0.8,0.2
		c-0.1,0-0.4,0-0.5-0.1c0.1-0.1,0.2-0.1,0.2-0.1c0-0.1,0.1-0.2,0.1-0.4h0.3c0.1-0.1,0.1,0,0.1,0c0.1,0.2,0.4,0.4,0.6,0.2
		c0.5-0.1,0.1-0.6,0.5-0.7h0.4c0.4,0.1,1,0.1,1.1-0.1c0.1-0.1,0.1-0.8-0.4-1.1c-0.3-0.1,0-0.5-0.3-0.8c0.5,0.1,1,0.4,1.6,0.4
		c1.1,0,1.5-0.1,1.9-0.5c0.6-0.4,1.2-0.1,1.4-0.1c0.1,0,0.3,0,0.1,0.2c-0.1,0.6,0,0.6-0.1,1c-0.1,0.1-0.6,0-1,0
		c-0.1,0-0.2,0.1-0.4,0.1s-0.6,0.3-0.6,0.6c0.1,0,0.4-0.2,0.5-0.2v0.1c0,0.4,0.5,0.5,0.7,0.2c0,0,0.1,0,0.1,0.1
		c-0.2,0.1-0.7,0.5-0.4,0.6l0.1,0.1c0,0.3,0.1,0.5,0.4,0.6c0-0.1,0-0.2,0.1-0.5h0.1c0.3,0,0.3-0.5,0.5-0.7c0,0,0.1,0,0,0.1
		c0,0.2-0.1,0.6,0.1,0.7h0.1c0.1,0.2,0.4,0.4,0.7,0.2c-0.1-0.1-0.2-0.1-0.2-0.2c0-0.1,0.1-0.2,0.1-0.4c0.2-0.6-0.2-0.6-0.2-0.8
		c0.1-0.2,0.6,0,0.6-0.7c0.1,0,0-0.2-0.1-0.2v-0.1c0.1,0,0.2,0.1,0.4-0.1c-0.4,0-0.2-0.4-0.2-0.6 M266.2,152.3
		c0.1,0.1,0.7,0.4,1,0.4c-0.5,0.1-0.4,0.2-0.6,0.2C266.2,152.9,266.2,152.6,266.2,152.3 M265.6,151.9c-0.1,0.4-0.4,0.5-0.6,0.2
		c-0.2-0.2,0-0.2-0.2-0.6C265,151.7,265.5,152,265.6,151.9 M264.8,154c0-0.1,0.1-0.4,0.2-0.4c0.1,0,0.2,0,0.4-0.1
		c0-0.2-0.1-0.4-0.4-0.4c0.2-0.1,0.4-0.2,0.2-0.2c-0.1-0.1-0.4,0-0.4,0c0-0.1,0.1-0.2,0.1-0.2h0.2l0.8,0.4c0,0,0.1,0.1,0.1,0.2
		c0,0,0,0.2-0.1,0.2c0,0,0-0.2-0.1-0.2c-0.1-0.1-0.1,0.1-0.1,0.2c-0.1,0-0.4-0.1-0.4,0c-0.1,0.2-0.1,0.2,0,0.4c0.1,0.1,0,0.2,0,0.5
		c-0.1,0.1-0.4,0.4-0.6,0.2C264.7,154.5,264.7,154.1,264.8,154 M264.2,152.9h-0.1H264.2z M249.2,138c0-0.7-0.7-1.2-3.3-1.2
		c-2.4,0-9.9,1-9.9-0.5c0-0.8,2.5-0.5,4.4-0.5c0.1,0.2,0.4,0.4,0.6,0.4c3.1,0.8,6.4-1.2,8.7-0.5c-1.8-1.6-4.1,0.2-6.5-0.2
		c1.5,0,2.9-0.4,3-0.7c-1.1,0.7-4.2-0.5-5.4,0.4c-0.1,0-0.2,0.1-0.2,0.1c-2.3,0-5.2-0.2-5.2,1.1c0,2.4,8.6,1.1,10.6,1.1
		c2.1,0,2.5,0.1,2.5,0.5c0,0.6-2.1,0.7-3.3,0.7c-1.9,0-9.9-1-13.1,0c0.2-0.6,1-1.3,0.6-1.8c0.4-0.1,0.5-0.4,0.5-0.6
		c-0.2-0.2-0.4-0.2-0.6-0.2c0.1-0.2,0-0.4-0.1-0.5l-0.1-0.4c-0.2-0.2-0.5-0.4-0.7-0.6c-0.4-0.1-0.6-0.1-0.7-0.1h-0.5
		c-0.1,0-0.4,0-0.4,0.2c-0.2-0.2-0.4-0.2-0.6-0.2c-0.1,0.2-0.1,0.5,0,0.8c-0.4,0-0.6,0.7-1,0.7c0.1,0.2,0.2,0.2,0.4,0.2
		c-0.2,0.5-0.4,1-0.6,1.1c0,0.1,0.1,0.1,0.2,0.2c-0.1,0.2-0.1,0.5-0.1,0.7l-0.2-0.1h-0.4c-0.1,0-0.2-0.1-0.5-0.1
		c-0.4,0-0.6-0.6-1.3-1c-0.4-0.4-0.5-0.5-0.5-1.1c0-0.4,0.3-0.7,0.3-1.2c0,0-0.1-0.2-0.1-0.4c-0.1-0.2-0.5-0.5-0.7-0.4
		c0.1,0,0.3,0.1,0.3,0.4c0,0.1-0.1,0.2-0.1,0.2c-0.1,0.1-0.1,0.4,0,0.5v0.2c0,0.1,0,0,0,0c-0.1-0.2-0.3-0.7-0.6-0.7
		c0,0-0.1-0.1-0.1,0v-0.1c0-0.2-0.4-0.5-0.7-0.1c0.1,0,0.2,0,0.2,0.1v0.2c-0.1,0.4,0.1,0.5,0.5,0.5c0.1,0,0.1,0,0.1,0.1v0.1
		c0.1,0,0,0,0,0c-0.6-0.2-0.8,0-0.8,0.2v0.2c-0.1,0.1-0.2,0.5,0.1,0.6c0,0,0-0.2,0.1-0.2s0.1,0,0.1-0.1c0,0.1,0.1,0.1,0.1,0.2
		c0.1,0,0.3,0,0.4-0.1c0-0.1,0.1-0.1,0.1,0h0.1c0.1,0.1,0.1,0.1,0,0.1c-0.4,0.4-0.2,0.7,0.2,0.8v0.1c0,0.6-0.8,0.5-0.8-0.1
		c-0.5,0.7,0.4,1.3,1.1,1c0.1,0.1,0.1,0.2,0.2,0.2c0,0,0.1-0.1,0.3-0.1c0,0.2,0.1,0.5,0.4,0.5c-0.1-0.1,0-0.2,0-0.2
		c0.1,0,0.6,1,1.7,1.4c0.1,0,0.5,0,0.5-0.2l0.2,0.2c0,0.4,0.4,1,0.2,1s-1.7-0.1-2.1,0.1c-0.4,0.2-1.6,0.6-1.8,0.2
		c-0.1-0.2-0.1-0.4-0.3-0.6c-0.1-0.2-0.2-0.2-0.4-0.4h-0.4c-0.1-0.1-0.5-0.1-0.7,0c0.1,0,0.4,0,0.5,0.2c-0.1,0.1-0.1,0.2-0.1,0.2
		c-0.1,0.1-0.1,0.4,0.6,0.6c0.1,0,0.1,0.1,0.1,0.1c-0.1,0-0.2,0.1-0.5,0c-0.2-0.2-0.2-0.6-0.6-0.4c0,0-0.1,0-0.2,0.1h-0.1
		c-0.2-0.1-0.7,0.4-0.5,0.7c0-0.1,0.1-0.4,0.4-0.4v0.2c0.1,0.4,0.2,0.6,1.1,0.1c-0.1,0.4-0.7,0.7-0.3,1l0.1,0.1
		c-0.1,0.5,0.4,0.7,0.6,0.7c-0.2-0.2-0.2-0.4-0.3-0.6h0.3c0.4-0.1,0.1-0.5,0.4-0.6c0.1-0.1,0.1,0,0.1,0c0,0.1,0.1,0.6,0.5,0.5
		c0.5,0,0.6-0.4,0.6-0.6c0.1,0.1,0.2,0.2,0.2,0.5c0.1,0,0.2-0.1,0.2-0.4c0.1,0.2,0.1,0.5-0.1,0.7c0.1,0,0.6-0.2,0.7-0.7
		c0,0.1,0.1,0.2,0.1,0.2c0.3,0.1,0.5,0.1,0.8,0h0.1c-0.1,0.2-0.1,0.4,0,0.5c0-0.1,0.1-0.2,0.2-0.2c0.1,0,0,0.5,0.2,0.7
		c0-1.1,1.3-0.6,1.9-1c0.1-0.1,0.1-0.1,0.1,0s-0.1,0.2-0.2,0.4c0.1,0,0.6-0.1,0.8-0.4c0,0-0.1,0-0.1,0.1l1.1-0.5
		c0.1-0.1,0.1-0.2,0.1-0.4c0.1-0.1,0.2-0.1,0.4-0.1c0.7,0.1,0.6-0.5,0.8-0.5c4,0.6,1.7-1.7,6.4-1.2c0.2,0,0.4-0.1,0.5-0.2
		c-0.2,0.4-0.2,1.2,0.3,1.2c0.2,0.1,0.7,0.2,0.8,0.4v0.1c-0.4,0-0.6,0.1-0.7,0.1c-0.7,0.5-0.7-1.1-1.6-0.7l-0.1,0.1
		c-0.4,0-0.7,0.4-0.7,0.7c0.1-0.1,0.4-0.4,0.5-0.4v0.2c0,0.1,0.1,0.2,0.4,0.2c0.1,0,0.1-0.1,0.2-0.1c0.1,0,0.1,0,0.1,0.1
		c0,0.2-1-0.2-0.7,0.6c0,0,0,0.2,0.1,0.2c-0.1,0.2,0.1,0.5,0.6,0.4c-0.1,0-0.3-0.1-0.3-0.2h0.3v-0.1c0,0,0-0.1,0.1-0.1
		c0,0.1,0.1,0.1,0.1,0.1l-0.1,0.1c0,0.1,0,0.2,0.1,0.4c-0.1,0.2,0.4,0.6,0.7,0.2c-0.1,0-0.4,0-0.4-0.2h0.3v-0.4h0.1
		c0,0,0.1,0,0.2-0.1l0.1,0.1c0,0.2,0.2,0.4,0.6,0.2c0.5-0.1,0-0.6,0.5-0.7h0.2c0.5,0.1,1.1,0.1,1.2-0.1c0-0.1,0-1-0.5-1.2
		c-0.2-0.1,0.1-0.4-0.1-0.7c0.4,0.1,0.8,0.4,1.5,0.4c1.2,0,1.5-0.2,1.9-0.5c0.6-0.4,1.2-0.2,1.3-0.1c0.1,0,0.2,0,0.2,0.2
		c-0.1,0.6,0.1,0.6-0.1,0.8c0,0.2-0.6,0.1-0.8,0.1c-0.2-0.1-0.4,0.1-0.4,0.1c-0.3,0-0.6,0.2-0.6,0.6c0,0,0,0,0,0.1
		c0.1-0.1,0.2-0.2,0.5-0.2v0.1c0.1,0.4,0.5,0.5,0.7,0.2c0.1,0,0.1,0,0.1,0.1c-0.2,0.1-0.6,0.5-0.2,0.6l0.1,0.1
		c0,0.2,0.1,0.5,0.4,0.6c0-0.1-0.1-0.2,0.1-0.5h0.1c0.2,0,0.1-0.5,0.4-0.7h0.1c-0.1,0.4-0.1,0.7,0.1,0.7l0.1,0.1
		c0.1,0.2,0.4,0.4,0.7,0.1c-0.1,0-0.2-0.1-0.2-0.2l0.1-0.2c0.2-0.6-0.4-0.6-0.4-0.8s0.6-0.1,0.6-0.7c0,0,0-0.2-0.2-0.4
		c0.1,0,0.4,0,0.4-0.1c-0.4,0-0.2-0.4-0.4-0.6c0-0.1,0-0.1,0.1-0.1c0.1-0.1,0.2-0.4,0.1-0.6c-0.1,0.1-0.6,0.4-0.6,0
		c-0.1,0-0.1-0.4-0.5-0.2c-0.8,0-1.3-0.1-2.7-0.2C246.7,139.3,249.2,139,249.2,138 M231.5,136.1c0.1,0.1,0.6,0.2,1,0.4
		c-0.5,0.1-0.4,0.2-0.7,0.2S231.3,136.4,231.5,136.1 M230.8,135.8c-0.1,0.2-0.4,0.5-0.6,0.2c-0.2-0.2,0-0.2-0.2-0.7
		C230.2,135.5,230.5,135.7,230.8,135.8 M229.9,137.7l0.2-0.2c0.2,0,0.2,0,0.4-0.1c0.1-0.2-0.1-0.4-0.2-0.5c0.1,0,0.2-0.1,0.1-0.2
		c-0.1,0-0.2,0.1-0.4,0c0,0,0.1-0.1,0.2-0.1c0-0.1,0.1-0.1,0.2,0l0.7,0.4c0.1,0,0.1,0,0.1,0.1s0.1,0.2,0,0.4c-0.1,0-0.1-0.4-0.2-0.4
		c-0.1,0-0.1,0.1,0,0.4c-0.1-0.1-0.4-0.2-0.5,0c-0.1,0.1,0,0.2,0.1,0.4c0,0.1,0,0.2-0.1,0.4c0,0.2-0.2,0.5-0.5,0.2
		C229.8,138.2,229.9,137.9,229.9,137.7 M250.4,126.8c0-0.7-1-1.2-3.5-1.2s-8.3,0.8-8.3-0.6c0-0.6,1.2-0.6,2.5-0.5
		c0.1,0.1,0.2,0.2,0.6,0.2c3.3,1,7.1-0.7,9.2-0.1c-2.4-1.8-4.4,0-6.9-0.6c1.4,0,1.9-0.4,2.1-0.7c-1.2,0.7-3.3-0.4-4.6,0.4
		c-0.1,0.1-0.3,0.1-0.3,0.2c-1.9,0-3.4,0-3.4,1.1c0,2.7,6.9,1.1,9.1,1.1c2.2,0,2.7,0.2,2.7,0.6c0,0.7-2.2,0.8-3.4,0.8
		c-1.8,0-7.5-1-10.9-0.4c0.2-0.5,0.8-1.2,0.5-1.6c0.4-0.2,0.6-0.5,0.6-0.7c-0.2-0.1-0.5-0.2-0.6-0.2c0-0.1-0.1-0.4-0.2-0.5
		c0,0,0-0.4-0.1-0.5c-0.1,0-0.4-0.2-0.7-0.5c-0.4-0.1-0.6-0.1-0.8-0.1c0-0.1-0.4,0-0.4,0c-0.2,0-0.5,0-0.5,0.2
		c-0.1-0.2-0.4-0.2-0.6-0.2c-0.1,0.2-0.1,0.5-0.1,0.8c-0.3,0-0.6,0.8-0.8,0.7c0.1,0.2,0.1,0.2,0.2,0.4c-0.2,0.4-0.4,1-0.6,1
		c0.1,0.2,0.3,0.4,0.4,0.4v1l-0.6-0.1c0,0-0.1,0-0.1-0.1h-0.2h0.2l-0.4-0.1c-0.3-0.4-0.7-0.7-1.1-1c-0.5-0.2-0.5-0.5-0.5-1
		c0.1-0.5,0.3-1,0.3-1.3c0,0,0-0.2-0.1-0.4c0-0.2-0.4-0.5-0.6-0.5c0.1,0.1,0.2,0.2,0.2,0.5c-0.1,0.1-0.1,0.2-0.2,0.2
		c0,0.1-0.1,0.2,0,0.5h0.1c0,0.1,0,0.1-0.1,0.2c0,0.1,0,0,0,0c-0.1-0.4-0.2-0.8-0.5-0.8h-0.3c0-0.4-0.4-0.6-0.7-0.2l0.2,0.1v0.4
		c-0.1,0.4,0.1,0.5,0.5,0.5c0.1,0,0.1,0,0.1,0.1v0.1c-0.6-0.2-0.8,0-0.8,0.2c0,0-0.1,0.2,0,0.2c-0.2,0.1-0.4,0.5,0,0.7
		c0-0.1,0-0.4,0.2-0.4V125c0.1,0.1,0.1,0.2,0.2,0.2c0,0,0.1,0,0.2-0.1c0.1-0.1,0.1-0.1,0.1,0c0.1,0,0.1,0,0.3,0.1v0.1
		c-0.5,0.4-0.4,0.7,0.1,0.8h0.1c-0.1,0.8-1.1,0.6-1-0.1c-0.6,0.8,0.4,1.4,1.1,1.1c0.1,0.1,0.1,0.2,0.3,0.2c0,0,0.1-0.1,0.2-0.1v0.1
		c0,0.1,0,0.4,0.2,0.4c0-0.1,0.1-0.2,0.1-0.2c0.1,0,0.5,0.6,1.1,1c0.5,0.1,0.8,0.6,1.1,0.4c0,0.5,0.4,1.1,0.4,1.1
		c-0.3,0-1.6-0.1-1.8,0c-0.5,0.2-1.7,0.7-2.1,0.2c-0.1-0.1-0.1-0.4-0.2-0.6c-0.1-0.1-0.3-0.2-0.4-0.2H227c-0.2-0.2-0.7-0.2-0.8-0.1
		c0.1,0,0.4,0,0.5,0.2c-0.1,0.1-0.1,0.2-0.1,0.2c-0.1,0.1-0.1,0.5,0.7,0.7v0.1c-0.1,0-0.3,0-0.5-0.1c-0.2-0.2-0.2-0.5-0.6-0.4
		c0,0-0.1,0.1-0.2,0.1h-0.1c-0.4,0-0.8,0.4-0.6,0.7c0,0,0.1-0.2,0.4-0.2c0.1,0,0.1,0.1,0.1,0.2c0.1,0.4,0.2,0.6,1.1,0.1
		c0-0.1,0,0,0,0c-0.2,0.4-0.7,0.6-0.2,1l0.1,0.1c-0.1,0.5,0.4,0.8,0.6,0.8c-0.2-0.2-0.3-0.5-0.3-0.7c0.1,0.1,0.3,0.1,0.3,0.1
		c0.4-0.2,0.2-0.6,0.4-0.7c0.1-0.1,0.1-0.1,0.1,0c0.1,0.2,0.1,0.6,0.6,0.6c0.4-0.1,0.6-0.4,0.6-0.7c0.1,0.1,0.2,0.2,0.2,0.5
		c0.1,0,0.2-0.1,0.4-0.4c0,0.2,0.1,0.5-0.2,0.8c0.1-0.1,0.6-0.4,0.7-0.8c0.1,0.1,0.1,0.2,0.3,0.4v-0.1c0.1,0.1,0.4,0.1,0.8,0
		c0.1,0,0.1,0,0.1,0.1c-0.1,0.1-0.1,0.4,0,0.4c0,0,0.1-0.2,0.2-0.2c0.1,0-0.1,0.5,0.3,0.7c0-1.1,0.7-0.7,1.3-1.1
		c0.1-0.1,0.1-0.1,0.1,0s-0.1,0.2-0.3,0.4c0.7,0.2,1.9-1,2.2-1.4c0.3-0.1,0.6-0.1,0.7-0.1c2.3,0.2,0.7-2.1,4.3-1.5
		c0.2,0.1,0.6-0.1,0.8-0.4c-0.2,0.5-0.2,1.4,0.3,1.6c0.3,0,0.6,0.1,0.8,0.4c0,0,0,0.1-0.1,0.1c-0.2,0-0.5,0.1-0.6,0.1
		c-0.8,0.5-0.8-1.1-1.7-0.8c0,0-0.1,0.1-0.2,0.1c-0.2,0-0.7,0.5-0.6,0.7c0.1,0,0.2-0.2,0.5-0.2v0.2c0,0,0,0.2,0.4,0.2
		c0.1,0,0.1-0.1,0.3-0.1c0.1,0,0.1,0,0.1,0.1c0,0.2-1-0.2-0.8,0.6c0,0.1,0.1,0.2,0.1,0.2c0,0.4,0.3,0.6,0.7,0.4
		c-0.1,0-0.3-0.1-0.3-0.2h0.3l0.1-0.1h0.1c0,0.1-0.1,0.1-0.1,0.2l0.1,0.2c-0.1,0.2,0.4,0.6,0.8,0.4c-0.1-0.1-0.4-0.1-0.5-0.2
		c0.1,0,0.2-0.1,0.2-0.1s0.1-0.1,0.1-0.4h0.5c0,0.2,0.3,0.4,0.6,0.2c0.5-0.1,0-0.6,0.5-0.7h0.4c0.4,0.1,1.1,0.1,1.2-0.1
		c0-0.2,0-1-0.5-1.2c-0.2-0.1,0-0.5-0.2-0.8c0.5,0.1,1,0.4,1.6,0.4c1.2,0,1.6-0.1,2.1-0.5c0.4-0.3,1-0.3,1.5-0.1
		c0.1,0,0.2,0.1,0.1,0.2c-0.1,0.6,0.1,0.7,0,1c-0.1,0.2-0.6,0-1,0c-0.2,0-0.4,0.1-0.4,0.2c-0.3,0-0.6,0.2-0.6,0.6
		c0.1-0.1,0.2-0.2,0.5-0.2v0.1c0.1,0.4,0.6,0.5,0.8,0.2c0,0,0.1,0,0,0.1c-0.2,0.1-0.6,0.5-0.2,0.6c0,0.1,0.1,0.1,0.2,0.2
		c-0.1,0.2,0.1,0.5,0.4,0.5c-0.1-0.1-0.1-0.2,0-0.5h0.2c0.3,0,0.1-0.5,0.4-0.7h0.1c-0.1,0.4-0.2,0.7,0.1,0.8h0.1
		c0.1,0.2,0.4,0.4,0.7,0.2c0,0-0.2-0.1-0.2-0.2c0-0.1,0.1-0.2,0.1-0.4c0.2-0.6-0.4-0.6-0.4-0.8s0.6-0.1,0.6-0.7c0-0.1,0-0.4-0.2-0.4
		V130c0.1,0,0.4,0.1,0.5-0.1c-0.5,0-0.4-0.4-0.5-0.6c0-0.1,0-0.1,0.1-0.1c0.2-0.2,0.3-0.5,0.2-0.7c-0.2,0.2-0.7,0.5-0.8,0
		c0,0,0-0.2-0.4-0.1c-0.8,0-1.3-0.1-2.9-0.2C247.9,128.3,250.4,127.8,250.4,126.8 M230.4,128.4v-0.1V128.4 M234.5,124.7
		c0,0.1,0.7,0.4,1,0.4c-0.5,0.1-0.4,0.4-0.6,0.4C234.5,125.3,234.4,124.9,234.5,124.7 M233.9,124.5c-0.1,0.1-0.5,0.4-0.7,0.1
		c-0.1-0.1,0-0.2-0.2-0.7C233.1,124.1,233.6,124.3,233.9,124.5 M232.9,126.5c0-0.2,0.1-0.4,0.2-0.4c0.1,0,0.3,0,0.4-0.2
		c0-0.1-0.1-0.2-0.4-0.4c0.3-0.1,0.4-0.1,0.3-0.2c-0.1-0.1-0.4,0.1-0.4,0s0.1-0.1,0.1-0.2h0.4l0.7,0.4c0.1,0.1,0.1,0.1,0.1,0.2
		c0,0.1,0.1,0.2,0,0.2c-0.1,0.1-0.1-0.2-0.2-0.2c-0.1,0-0.1,0.1,0,0.4c-0.2-0.1-0.4-0.2-0.5,0c-0.1,0.1,0,0.2,0,0.4
		c0.1,0.1,0,0.2,0,0.4c-0.1,0.2-0.4,0.5-0.6,0.4C232.8,127,232.8,126.6,232.9,126.5 M235,131v-0.1V131 M246.8,117
		c2.7,0.1,3.9-0.8,3.9-1.6c0-2.9-7.1-1.1-7.1-2.9c0-0.4,0.2-0.6,0.5-0.8h0.1c3.6-0.2,3.6-2.8,6.3-3.3c-3.1-0.5-3.6,2.1-5,2.1
		c0.7-0.2,1-1.1,1-1.4c-0.6,0.8-2.1,1-2.9,1.9c0,0.1-0.1,0.4-0.1,0.5c-0.4,0.2-0.7,0.6-0.7,1.1c0,2.7,7.4,0.8,7.4,2.8
		c0,0.7-1.3,1.2-3.3,1.2c-1.6,0-2.7-1.1-5.4-0.4c0-0.5,1-1.3,0.6-1.8c0.2-0.1,0.5-0.2,0.5-0.5c-0.2-0.2-0.4-0.2-0.6-0.2
		c0.1-0.1,0-0.4-0.1-0.5c0,0,0-0.2-0.1-0.4c-0.1,0-0.4-0.2-0.7-0.4s-0.5-0.2-0.6-0.2l-0.4,0.1c-0.2-0.1-0.4-0.1-0.4,0.1
		c-0.1-0.1-0.4-0.2-0.5-0.2c-0.1,0.2-0.2,0.5-0.1,0.8c-0.2,0-0.6,0.6-0.8,0.6l0.2,0.2c-0.1,0.4-0.2,0.8-0.5,0.8
		c0.1,0.1,0.1,0.2,0.2,0.2c-0.2,0.6-0.4,1.3-0.5,1.7c-0.1-0.1-0.2-0.4-0.6-0.5c-0.4-0.2-0.4-0.5-0.2-0.8c0-0.4,0.2-0.7,0.2-1.1v-0.2
		c0-0.2-0.4-0.5-0.6-0.4c0.1,0,0.3,0.1,0.3,0.4c-0.1,0-0.3,0.1-0.3,0.1c-0.1,0.1-0.1,0.2,0,0.4v0.2c-0.1,0.1-0.1,0-0.1,0
		c0-0.2-0.1-0.6-0.4-0.6h-0.2v-0.1c0.1-0.2-0.2-0.5-0.6-0.1c0.1,0,0.3,0,0.3,0.1s-0.1,0.2-0.1,0.2c0,0.2,0.1,0.4,0.5,0.4
		c0.1,0,0.1,0.1,0.1,0.1v0.1c-0.6-0.2-0.8,0-0.8,0.2v0.1c-0.2,0.1-0.4,0.4,0,0.6c0-0.1,0-0.2,0.1-0.4h0.1c0,0.1,0.1,0.1,0.1,0.1h0.4
		c0-0.1,0-0.1,0.1,0h0.1v0.1c-0.5,0.2-0.5,0.6,0,0.7c0.1,0,0.1,0,0.1,0.1c-0.1,0.5-1,0.4-0.8-0.1c-0.6,0.6,0.1,1.1,0.8,0.7
		c0,0,0.1,0,0.1,0.1s0,0.1,0.1,0.1l0.1-0.1c0.1,0,0.1,0.1,0.1,0.1c0,0.1,0,0.4,0.3,0.4c0-0.1,0-0.2,0.1-0.2s0.2,0.5,0.6,1
		c-0.5,0.2-1,0.4-1.6,0.5c-0.1,0-1-0.1-1.3,0c-0.4,0.2-1.4,0.6-1.7,0.2c-0.1-0.1-0.1-0.4-0.1-0.6c-0.1-0.1-0.3-0.2-0.4-0.2h-0.2
		c-0.2-0.1-0.6-0.1-0.7,0c0.1,0,0.2,0,0.4,0.2l-0.1,0.1c0,0.1,0,0.4,0.7,0.6v0.1c-0.1,0-0.3,0.1-0.4,0c-0.2-0.2-0.4-0.6-0.6-0.4
		c0,0-0.1,0.1-0.2,0.1c-0.4,0-0.7,0.3-0.6,0.6c0.1-0.1,0.1-0.2,0.4-0.2c0.1,0,0.1,0.1,0.1,0.1c0,0.4,0.1,0.6,0.8,0.1v0.1
		c-0.1,0.2-0.6,0.6-0.3,0.7l0.1,0.1v0.1c0,0.4,0.4,0.6,0.6,0.6c-0.1-0.1-0.2-0.2-0.2-0.6c0.1,0.1,0.2,0.1,0.2,0.1
		c0.2-0.1,0.1-0.5,0.4-0.6c0-0.1,0,0,0,0c0.1,0.1,0.1,0.5,0.5,0.5s0.6-0.4,0.6-0.5v-0.1c0.1,0.1,0.2,0.2,0.1,0.5
		c0.1-0.1,0.2-0.1,0.4-0.4c0,0.2,0,0.5-0.3,0.7c0.3-0.1,0.6-0.2,0.7-0.7c0,0.1,0.1,0.2,0.1,0.2c0.1,0,0.4,0.1,0.7,0h0.1
		c-0.1,0.1-0.1,0.4,0,0.4l0.1-0.1c0.1,0,0,0.4,0.2,0.6c0.1-1,0.6-0.6,1.2-1c0.1-0.1,0.1-0.1,0.1,0s-0.1,0.2-0.3,0.4
		c0.2,0,0.7-0.2,0.7-0.6c0-0.1,0.1-0.2,0.4-0.4c0.2,0,0.6-0.1,0.7-0.4c0,0.1,0.1,0.5,0,0.5c0.6,0.1,1.3-0.6,1.6-0.7
		c1.3-0.2-1-1.2,1.9-1.1c0.2,0,0.6-0.1,0.7-0.2c-0.1,0.4-0.1,1.2,0.2,1.3c0.3,0,0.6,0.1,0.7,0.2v0.1c-0.3,0-0.5,0-0.6,0.1
		c-0.7,0.5-0.7-1-1.4-0.7l-0.1,0.1c-0.3,0-0.6,0.4-0.6,0.6c0.1,0,0.2-0.2,0.5-0.2v0.1c0,0.1,0,0.2,0.2,0.2h0.4
		c0,0.4-0.8-0.1-0.7,0.6c0,0,0.1,0.1,0.1,0.2c0,0.2,0.1,0.5,0.6,0.2c-0.1,0-0.2-0.1-0.2-0.2c0.1,0,0.1,0,0.2,0.1v-0.1
		c0-0.1,0-0.1,0.1-0.1v0.5c0,0.2,0.4,0.5,0.7,0.2c-0.1,0-0.2,0-0.4-0.1c0.1-0.1,0.2-0.1,0.2-0.1v-0.2c0-0.1,0.1-0.1,0.1-0.1h0.1
		c0.1,0,0.2,0,0.2,0.1s0.2,0.2,0.5,0.1c0.5-0.1,0.1-0.5,0.5-0.6h0.2c0.4,0.1,1,0.1,1-0.1c0.1-0.1,0.1-0.8-0.2-1.1
		c-0.2,0,0-0.4-0.2-0.7c0.4,0.3,0.9,0.4,1.3,0.4c1.1,0,0.1-0.1,0.5-0.4c0.5-0.4,1.1-0.2,1.2-0.1c0.1,0,0.2,0,0.2,0.2
		c-0.1,0.5,0,0.6-0.1,0.7c0,0.2-0.5,0.1-0.7,0.1c-0.3,0-0.4,0-0.4,0.1c-0.2,0-0.5,0.2-0.5,0.5c0,0,0.2-0.1,0.4-0.2v0.1
		c0.1,0.4,0.5,0.5,0.7,0.2c0,0,0.1,0,0.1,0.1c-0.2,0.1-0.6,0.5-0.2,0.6l0.1,0.1c0,0.1,0.1,0.4,0.4,0.4c-0.1,0-0.1-0.1,0-0.4h0.1
		c0.2,0,0.1-0.5,0.4-0.6h0.1c-0.1,0.4-0.1,0.6,0.1,0.7h0.1c0.1,0.2,0.4,0.4,0.6,0.1c0,0-0.2,0-0.2-0.1s0.1-0.2,0.1-0.2
		c0.1-0.6-0.2-0.6-0.2-0.8s0.5,0,0.5-0.6c0,0,0-0.2-0.2-0.2v-0.1c0.1,0,0.2,0.1,0.4-0.1c-0.4,0-0.2-0.4-0.4-0.6h0.1
		c0.1-0.1,0.1-0.2,0.1-0.6c-0.1,0.1-0.6,0.4-0.6,0c0,0,0-0.2-0.4-0.2c-0.7,0.1-1.1-0.2-2.3-0.4c-0.1,0-0.1,0,0-0.1 M238.7,114h-0.1
		H238.7 M240.5,113.5c0.1,0.1,0.6,0.4,0.8,0.4c-0.4,0.1-0.2,0.2-0.5,0.2C240.6,114.2,240.5,113.8,240.5,113.5 M240,113.3
		c-0.1,0.2-0.4,0.4-0.6,0.1c-0.1-0.1,0.1-0.2-0.1-0.5C239.4,113.1,239.9,113.3,240,113.3 M239.2,115.1c0.1-0.2,0.1-0.4,0.2-0.4
		c0.1,0,0.3,0,0.3-0.1c0.1-0.1-0.1-0.2-0.3-0.4c0.3,0,0.3-0.1,0.1-0.1c0-0.1-0.2,0-0.2-0.1l0.1-0.1c0.1-0.1,0.1,0,0.2,0l0.7,0.4
		c0.1,0,0.1,0,0.1,0.1v0.2c-0.1,0-0.1-0.2-0.3-0.2c-0.1,0-0.1,0.1,0,0.2c-0.2,0-0.4-0.1-0.4,0c-0.1,0.1-0.1,0.2,0,0.4v0.4
		c-0.1,0.1-0.4,0.4-0.6,0.2C239,115.5,239.2,115.3,239.2,115.1 M249.1,156.1l-0.6-0.1v-0.5c0.1-2.2-1.2-3.7-3.5-3.7
		c-2.1,0-6,2.7-11.6,2.7c-2.4,0-5.2-1.2-6.9-2.3l-0.7,1.7v-0.1c0-0.8-0.7-1.4-1.5-1.4c-0.7,0-1.3,0.7-1.3,1.4s0.6,1.3,1.3,1.3
		c0.5,0,0.8-0.1,1.1-0.5l-0.7,1.7c0.4,0.1,0.6,0.2,0.8,0.2c-0.8,8.5,5.3,19.2,16.4,22.5c1.6-0.4,3.3-0.1,3.3,1.6
		c0,1.2-0.5,1.7-1.6,1.7c-0.6,0-1.1-0.5-1.1-0.8c0-0.7,1.3-0.4,1.5-0.8c0.2-0.6-0.2-1-1-1s-1.9,0.5-1.9,1.8c0,1.4,1.2,2.4,2.5,2.4
		c1.2,0,3.7-0.7,3.4-3.7c0.6,0,1.3,0,1.4-0.6l0.1-1.7l-0.6-0.1l0.5-19.3h0.4c0.7,0.1,1.3-0.2,1.5-1
		C250.3,156.4,249.7,156.1,249.1,156.1 M229.2,157.5l13.4,19.3C235.4,174.1,228.3,167.6,229.2,157.5 M242.9,174.9l-12.2-17.5h1.2
		c0.6,0,1.2,0,1.8-0.1l9.8,14.1C243.4,172.8,243.2,174,242.9,174.9 M243.9,169.4l-8.6-12.3c0.8-0.2,1.8-0.5,2.7-0.8l6.5,9.3
		C244.2,166.8,244,168.1,243.9,169.4 M246,155.8l-0.5-0.1c-0.6,0-1.3,0.2-1.3,1.1c-0.1,0.7,0.5,1.2,1.1,1.2h0.5
		c-0.1,0.2-0.1,0.4-0.1,0.5c-0.1,1.1-0.5,2.9-0.7,5.1l-5.6-7.9c2.5-1,4.6-2.2,5.8-2.2C246,153.6,246.2,154,246,155.8 M279.3,135.8
		c0.4-0.1,0.8-0.4,1-0.8c-0.3,0.2-0.7,0.1-1-0.1c0.4-0.2,0.7,0,0.4-0.6c-0.5-0.7-0.7-0.7-1.2-0.2c-0.4,0.5-3.3-0.1-3.1-2.3
		c0.1,0.4,0.5,0.7,1,0.8c0.1,0,0.1,0.1,0.2,0.1c0.1,0.1,0.2,0.1,0.4,0.1c0.4,0.1,0.6,0.1,0.8,0.1h0.1v-0.1c0.6-0.1,1.1-0.5,1.2-1.1
		c0.1-1.2-1.1-1.7-2.3-2.8c-0.4-0.3-0.7-0.6-1.1-1c-0.5-0.8-0.2-1.7-1.2-3.1c-0.2-0.5-0.3-1-0.4-1.4c-0.8,1.5-0.6,3.3,0.6,4.6
		c1.2,1.3,3.7,2.5,3.6,3.6c0,0.2-0.2,0.5-0.6,0.6h-0.4c-0.1,0-0.1-0.1-0.2-0.1c-0.2-0.1-0.4-0.1-0.5-0.3c-0.4-0.1-0.6-0.4-1-0.7
		c-1.1-1-1.9-2.4-2.7-3.3c-1.1-1.5-0.6-2.9-0.4-4.1c0.7-1.2-0.6-3.5-1.3-4.1c0,0,0.1-0.6,0-1.2c-0.3,0.1-0.6,0.1-0.8,0.1
		c-0.1-0.5-0.3-0.6-0.5-0.6c-0.6-0.1-0.6-0.4-0.6-0.6c-0.2,0.2-0.4,0.5-0.7,0.6c-0.4,0-0.6,0-0.7,0.1c-0.4,0.2-0.5,0.4-1,0.4
		c-0.4,0-0.4,0.2-0.4,0.6c0,0.1,0,0.5,0.4,0.6l0.1,0.1l0.4,0.4l0.2-0.4c0.2-0.2,0.8-0.2,1,0.1c0.1,0.4,0.1,0.4-0.2,0.5h-1
		c-0.4,0.1-0.4,0.5-0.4,0.6c0,0.4,0.4,0.5,1,0.4c0.6-0.2,1.6-0.2,1.6,0.1c0,1.3-1.4,1.3-1.8,2.8c-0.4-0.2-0.7-0.5-0.8-0.8
		c-0.3-0.5-0.7-0.9-1.1-1.3c-0.4-0.2-0.7-0.6-1.1-0.8c-0.5-0.4-0.6-0.5-0.6-1.1c0-0.5,0.2-0.8,0.2-1.3c0,0-0.1-0.2-0.1-0.4
		c-0.1-0.2-0.5-0.5-0.7-0.4c0.1,0,0.2,0.1,0.4,0.4l-0.2,0.2c-0.1,0.1-0.1,0.4,0,0.5v0.4c-0.1-0.4-0.2-0.8-0.6-0.8H263v-0.1
		c0-0.2-0.2-0.5-0.7-0.1c0.1,0,0.2,0,0.4,0.1c-0.1,0.1-0.1,0.2-0.1,0.2c0,0.3,0.2,0.6,0.5,0.6c0,0,0,0,0.1,0h0.1v0.2
		c-0.6-0.4-0.8,0-0.8,0.2v0.2c-0.3,0.1-0.3,0.5,0.1,0.7c0-0.1,0-0.4,0.1-0.5h0.1c0,0.1,0.1,0.1,0.1,0.1c0,0.1,0.1,0.1,0.4-0.1h0.1
		l0.1,0.1c0.1,0.1,0.1,0.1,0,0.1c-0.4,0.4-0.2,0.7,0.2,0.8c-0.4,0.4-1,0.2-1-0.4c-0.5,0.8,0.4,1.3,1.1,1.1c0,0.2,0,0.8,0.1,0.8
		c0-0.1,0-0.1,0.1-0.1c0,0.2,0.1,0.5,0.4,0.5c0-0.1,0-0.2,0.1-0.2c0.1,0.2,0.2,0.4,0.4,0.6c0.2,0.5,1,2.1,2.5,2.7
		c-0.8,0.5-1.3,1.2-1.8,1.7c-0.5,0.5-1.1,1-1.5,0.7l-0.5-0.5c-0.1-0.1-0.4-0.1-0.5-0.1c0,0-0.1,0-0.2,0.1c-0.3-0.1-0.6,0-0.7,0.2
		c0.1,0,0.2-0.1,0.5,0.1v0.2c0,0.1,0.1,0.4,1,0.2c0,0,0.1,0.1,0,0.1c0,0.1-0.1,0.2-0.4,0.1c-0.4-0.1-0.5-0.4-0.7,0
		c-0.1,0-0.1,0.1-0.2,0.2c0-0.1,0,0,0,0c-0.4,0-0.7,0.6-0.4,0.8c0-0.1,0.1-0.2,0.3-0.5l0.2,0.2c0.2,0.4,0.5,0.5,1-0.2
		c0.1-0.1,0.1,0,0.1,0c-0.1,0.4-0.5,0.8,0,1h0.2v0.1c0.1,0.4,0.7,0.5,1,0.4c-0.2,0-0.5-0.1-0.6-0.5h0.2c0.4-0.4,0-0.7,0.1-0.8
		c0-0.1,0.1,0,0.1,0c0.1,0.1,0.4,0.5,0.7,0.2c0.2-0.1,0.4-0.2,0.4-0.5c0.5-0.2,1-0.4,1.3-0.2c0-0.2,0.2-0.7,0.8-0.8s0.8,0,1,0.2
		c0.1-0.2,0.4-0.6,0.6-1c-0.1,2.2,3,2.2,3.6,3.5c-0.8-0.4-1.9-0.6-2.4-0.5c-0.7,0.1-2.1,0.8-2.2,1.7c-0.1,0.6,0.5,1.8,1.2,2.4
		c-0.8,0.1-1.1-0.1-1.9,0h-0.1c-0.6,0.1-0.7-1.1-1.6-0.8l-0.2,0.2c-0.2,0-0.7,0.4-0.6,0.7c0-0.1,0.2-0.2,0.5-0.4v0.2
		c0,0.1,0,0.2,0.3,0.2c0.2,0,0.2-0.1,0.4-0.1c0,0,0.1,0,0.1,0.1c0,0.2-1.1-0.2-0.8,0.7c0,0,0.1,0.1,0.1,0.2c0,0.2,0.2,0.5,0.6,0.4
		c0-0.1-0.2-0.2-0.1-0.4h0.1c0.1,0,0.1,0,0.1-0.1h0.1v0.5c0,0.4,0.5,0.7,1,0.4c-0.1,0-0.5-0.1-0.5-0.2c0.1,0,0.2-0.1,0.2-0.1
		s0.1-0.1,0.1-0.3v-0.1h0.2c0.1,0,0.1,0,0.1,0.1c0.1,0.1,0.4,0.2,0.6,0.2c0.2-0.1,0.2-0.2,0.4-0.2c0.1,0,0.2,0.1,0.4,0.2
		c-0.1-0.4,0.1-0.6,0.8-0.1l0.5-0.4c0,0,0.6,0.2,0.8-0.1c0.5-0.4,0.2-0.4,0.2-0.7c-0.2-0.6-0.5-0.6-0.6-1.2
		c-0.2-1.2,1.3-1.8,2.2-1.6c0.2,0.7,1.2,2.5,2.9,3.1c1,0.4,1.5-0.8,1.8-0.6c0,0,0.1,0.1,0.1,0.2c0,0.5,0,1-0.1,1.2s-0.6,0-1,0
		c-0.2,0-0.5,0.1-0.5,0.2c-0.3,0-0.6,0.2-0.6,0.7c0.1-0.1,0.2-0.4,0.6-0.4v0.1c0,0.5,0.5,0.6,0.7,0.4c0.1-0.1,0.2,0,0.1,0
		c-0.2,0.2-0.7,0.6-0.2,0.7l0.1,0.1c0,0.4,0.2,0.6,0.5,0.6c-0.1-0.1-0.1-0.2,0-0.5h0.2c0.2,0,0.1-0.6,0.5-0.7
		c-0.1,0.4-0.1,0.7,0.1,0.8h0.2c0.1,0.2,0.4,0.5,0.8,0.2c-0.1,0-0.4-0.1-0.4-0.2c0-0.1,0.1-0.2,0.1-0.4c0.2-0.6-0.4-0.6-0.4-0.8
		c0-0.4,0.7-0.1,0.7-0.8l-0.1-0.1c0.4-0.1,0.7-0.4,0.7-0.6c-0.4,0-0.7-0.1-0.8-0.1L279.3,135.8z M285.6,139.6
		c0.6,0.5,0.5,1.4-0.4,1.3c-0.7-6.5-3.3-12.8-6.9-18.1c0,0,0-0.1,0.1-0.1c0.8-0.3,1.4-1,1.4-1.8c-1.1-0.2-1.8,0.4-2.3,1
		c-0.2-0.4-0.5-0.7-0.7-1c-2.2-2.9-4.8-5.4-7.9-7.4c-2.6-1.8-5.5-3.1-8.6-3.9c0-0.7,1-0.8,1.3-0.2c0.1-1.1-0.8-1.7-1.4-1.4
		c-0.3,0.1-0.6,0.4-0.6,0.8c-0.4-0.5-0.8-0.7-1.7-0.8c0,0.7,0.3,1.3,0.6,1.7c-0.6,0-0.8,0.2-1,0.5c-0.4,0.5,0,1.6,1.2,1.7
		c-0.6-0.5-0.4-1.3,0.4-1.2v13.8c-0.7-0.1-1.6-0.1-2.3,0.6c0.7,0.8,1.6,0.8,2.3,0.6v15.2c-0.7,0.1-1-0.8-0.4-1.3
		c-1.1,0-1.6,1.1-1.3,1.6c0.1,0.4,0.5,0.6,1.1,0.6c-0.4,0.4-0.6,1-0.6,1.6c0.7,0,1.2-0.2,1.6-0.6c0,0.7,0.2,1,0.6,1.2
		c0.6,0.2,1.6-0.2,1.6-1.5c-0.4,0.6-1.3,0.5-1.3-0.2H271c-0.3,0.8,0,1.7,0.6,2.3c0.7-0.7,0.7-1.6,0.6-2.3H284c0.1,0.7-0.8,1-1.2,0.4
		c0,1.1,1,1.6,1.6,1.3c0.4-0.1,0.6-0.5,0.5-1.2c0.4,0.4,1,0.6,1.6,0.6c0-0.6-0.2-1.2-0.6-1.6c0.5,0,0.9-0.2,1.2-0.6
		C287.3,140.7,286.7,139.6,285.6,139.6 M275.4,121.1c-0.4,0.2-0.5,0.7-0.4,1c0.1,0.4,0.5,0.7,1.1,0.7c-0.4,0.4-0.7,0.9-0.8,1.5
		c0.7,0.1,1.3,0,1.7-0.4c-0.1,0.6,0.1,1.1,0.4,1.2c0.2,0.2,0.6,0.2,1,0.1c2.8,4.4,4.6,9.3,5.4,14.5c-0.4-0.3-0.9-0.4-1.3-0.4
		c0,0.7,0.3,1.2,0.7,1.6h-8.9c0-0.5-0.2-1-0.7-1.1c-0.2-0.1-0.7-0.1-1.2,0.4c0-0.6-0.2-1.2-0.6-1.6c-0.4,0.4-0.7,1-0.7,1.6
		c-0.4-0.5-0.8-0.5-1.2-0.4s-0.6,0.6-0.6,1.1h-7.6c0.3-0.4,0.5-0.9,0.5-1.5c-0.5,0-1.1,0.2-1.5,0.6v-12.4c0.5,0.1,1.1-0.2,1.2-0.6
		c0.1-0.4,0-0.7-0.5-1.2c0.6,0,1.2-0.3,1.6-0.7c-0.4-0.4-1-0.6-1.6-0.6c0.5-0.5,0.6-0.8,0.5-1.3c-0.1-0.4-0.7-0.6-1.2-0.5v-10.5
		c0.3,0.3,0.8,0.5,1.2,0.5c0.1-0.5,0-1-0.2-1.4c2.3,0.7,4.6,1.9,6.9,3.4C271,116.3,273.4,118.6,275.4,121.1 M308.9,144
		c-1.2-1-3.3-2.9-4.4-5.2c-1.3-2.8-7-14-8-15.5c-0.7-1-1-2.2-1.1-3.4c0-1.2,0.6-2.1,1.2-3c0.8-0.7,1.5-1.6,2.2-2.4
		c0.4-0.6,0.6-1,1-1.3c-2.1-3.6-4.2-6.3-6.9-9.4c-3.3-3.7-7-6.9-11.1-9.5c2.2-1.5,4.4-3.5,4.4-7c0-1.9-0.8-3.5-2.3-4.8
		c2.3-7.4,6.4-16.2,9.9-20.1l-7.4-3.1c1.9,2.9,2.1,6.3,1.7,8.3c-1.9-1.3-3.6-3.1-4.1-5.6c-0.4,2.2-1.7,5.8-2.8,8
		c2.2-1,3.9-1.5,6-0.6c-1.2,1.7-4.5,4.4-9.3,3.1c-2.7-0.6-5.2-2.1-5.2-4c0.1-1.2,1-2.7,2.7-2.5c1.7,0.1,1.7,2.5,1.2,3.7
		c2.1-1.2,4.3-7.5,1-8.3c-2.5-0.7-5,2.8-5.8,5.6c-0.5-3.3-1.8-6.4-4.5-6.3c-3.4,0.2-2.3,6.5-1.1,8.1c0.2-2.2,1.4-3.4,2.4-3.3
		c0.8,0,2.1,0.7,1.9,2.7s-3.1,3.3-6.4,3.3c-3.1,0-8.6-1-9.1-7c2.1,0.4,5.2,1.9,6.5,4c-0.4-3.3-0.4-6.7,0-10
		c-1.6,2.1-3.9,3.4-6.4,3.9c0.5-2.5,2.8-5.3,5.3-6.9H247c2.5,1.6,4.8,4.4,5.4,6.9c-2.1-0.4-4.7-1.6-6.4-3.9c0.4,3.3,0.4,6.7,0,10
		c1.3-2.1,4.4-3.6,6.4-4c-0.5,6-5.9,7-9.1,7c-3.3,0-6.2-1.2-6.3-3.3c-0.2-1.9,1-2.7,1.8-2.7c1.1-0.1,2.3,1.1,2.4,3.3
		c1.2-1.6,2.3-7.9-1.1-8.1c-2.7-0.1-4,3-4.5,6.3c-0.8-2.8-3.3-6.3-5.8-5.6c-3.3,0.8-1.1,7.1,1,8.3c-0.5-1.2-0.4-3.6,1.2-3.7
		c1.7-0.1,2.5,1.3,2.7,2.5c0.1,1.9-2.5,3.4-5.2,4c-4.8,1.2-8-1.3-9.2-3.1c2.2-0.8,3.9-0.4,6,0.6c-1.2-2.6-2.1-5.2-2.8-8
		c-0.5,2.4-2.2,4.2-4.1,5.6c-0.6-2.9,0-5.9,1.6-8.3l-7.4,3.1c3.5,3.9,7.6,12.8,9.9,20.2c-1.4,1.2-2.2,2.8-2.2,4.7
		c0,3.5,2.2,5.6,4.4,7c-4.1,2.7-7.9,5.9-11.1,9.5c-5.1,5.8-9,12.5-11.7,19.7c1,1,5.4,5.8,6.4,7.1c1.9,2.3,3,4.7,3,6.5
		c0.1,3.3,0.8,4.6,2.7,6.9c0.5,0.6,1.3,3.3,1.3,4.8H253v40c-1.5,0-3,0.4-4.2,1.9c4.2,1.7,8.2,3.3,12.3,4.5c0.4-2.5,0.8-4.2,2.2-5.8
		c0,0-5.3-0.5-8.1-0.7v-39.9H291c-0.1,5.4-1.1,10.8-2.9,15.8c-1.9,5.1-4.6,9.9-8.1,14c-3.3,3.9-7.3,7.1-11.8,9.4
		c-0.7,0.2-0.7,0.8-1.4,1.1c-0.6,0.7-1.2,1.9-1.8,3.3c-0.4,1.2-0.6,2.4-0.7,3.6c1.7,0.5,2.5,0.7,4.1,1.2c12.7,3.1,15.7,2.2,16.4,1.7
		v-0.1c2.9-2.2,5.6-4.7,8-7.4c5.1-5.7,8.9-12.3,11.7-19.8c2.9-7.6,4.4-15.7,4.4-24.2C309,146,309,145.6,308.9,144 M253.3,146.8
		h-36.7c0.1-5.7,1.1-11.2,2.9-16.4c1.9-5.1,4.6-9.9,8.1-14c3.3-3.9,7.3-7.1,11.8-9.3s9.1-3.4,13.9-3.4V146.8z M253.9,85.6
		c-12.2,0-20.7,3.6-25.5,6.9c-2.9-1.7-4.1-3.3-4.1-5.3c0-6.9,19.6-7.5,29.6-7.5c9.9,0,29.6,0.6,29.6,7.5c0,2.1-1.2,3.6-4.1,5.3
		C274.6,89.2,266.1,85.6,253.9,85.6 M255.5,146.8v-43.1c4.5,0.2,8.8,1.3,12.9,3.4c4.5,2.2,8.5,5.3,11.8,9.3c3.5,4.2,6.2,8.9,8.1,14
		c1.8,5.2,2.8,10.8,2.9,16.4H255.5z M378,235.9c-0.2-0.5-0.8-0.8-1.3-0.6c-11.5,3.3-25.7-6.2-39.5-15.5c-11.6-7.6-22.6-15-32-15
		c-3.4,0-6.5,0.7-9.2,2.2c-3.3,1.8-5.7,4.7-7.2,8.5c-1.2,3-2.8,5.9-4.6,8.6c-1.6,2.5-2.8,4.3-2.8,6.6c0,1.8,0.8,3.5,2.4,5.2
		c1.3,1.3,3.3,2.5,6,4.1c0.6,0.2,1.1,0.5,1.7,0.8c2.3,1.1,3.8,1.8,4,3.1c-4.6,1.9-10.4,3.6-17,4.8c-7.6,1.3-15.8,1.9-24.5,1.9
		c-8.8,0-17-0.6-24.5-1.9c-6.8-1.2-12.6-2.9-17.2-4.8c0.3-1.9,1.6-2.7,4.1-3.9c0.6-0.4,1.2-0.6,1.8-1c2.3-1.2,4.4-2.3,5.8-3.6
		c1.7-1.4,2.4-3,2.4-4.8c0-2.3-1.1-4.1-2.8-6.6c-1.3-2.1-2.9-4.7-4.6-8.6c-1.3-3.6-3.9-6.6-7.3-8.5c-2.7-1.4-5.8-2.2-9.2-2.2
		c-9.4,0-20.3,7.4-31.9,15.1c-13.9,9.2-28.2,18.6-39.6,15.3c-0.5-0.2-1.1,0.1-1.2,0.6c-0.2,0.5,0,1.1,0.6,1.3c3.4,1.6,6.5,4,9.5,6.3
		c4.1,3.1,8,6.3,12.3,6.3c4.1,0,8.5-1.3,13.8-4.1c4.6-2.4,9.4-5.7,14-8.8c9.1-6.3,18.5-12.7,27.4-13.4c-0.8,0.9-1.8,1.8-2.8,2.5
		c-2.5,2.4-4.8,4.5-4.8,8.6c0,3.3,1.1,5.6,2.7,8.7c0.5,1,1,2.1,1.5,3.3c1.1,2.2,1.5,3.9,2.1,6.4c0.3,1,0.5,2.2,0.8,3.6
		c0.6,2.1,1.7,6,8.2,9.3c7.5,3.9,20.5,5.8,38.8,5.8c18.1,0,31.2-1.9,38.8-5.8c6.5-3.3,7.5-7.3,8.1-9.3c0.4-1.5,0.6-2.7,1-3.6
		c0.4-2.2,1-4.4,1.9-6.4c0.6-1.4,1.3-2.8,2.1-4.1c1.3-2.5,2.4-4.6,2.4-7.5c0-4.2-2.4-6.3-5.1-8.8c-1.1-0.8-2-1.7-2.9-2.7
		c8.9,0.7,18.4,7.1,27.4,13.4c4.6,3.1,9.4,6.4,14,8.8c5.4,2.8,9.8,4.1,13.9,4.1c4.2,0,8.2-3.1,12.3-6.3c2.9-2.3,6-4.7,9.5-6.3
		C377.9,237,378.2,236.5,378,235.9 M262.8,224.1c-0.5,0-1.1,0.1-1.6,0.3v-9.9c-4.4-0.1-9.4-0.8-14.4-2.2v12
		c-0.6-0.1-1.1-0.2-1.7-0.2c-3.1,0-5.5,2.4-5.6,5.5c0,0,0,0,0,0.1c0,2.5,1.4,4.8,2.7,6.4c0.7-1.6,1.3-2.8,2.2-2.8
		c1.7,0,0.8,8.5,5.9,8.7c-0.2,0.4-0.2,0.8-0.2,1.3c0,2.2,1.7,4,3.9,4s3.9-1.8,3.9-4l0,0c0-0.5,0-1-0.2-1.3c5.1-0.2,4.2-8.7,5.9-8.7
		c0.8,0,1.3,1.1,2.2,2.8c1.2-1.6,2.7-3.9,2.7-6.4C268.3,226.6,265.9,224.1,262.8,224.1L262.8,224.1 M253.9,245.5
		c-1.2,0-2.2-1-2.2-2.2l0,0c0-1.2,1-2.2,2.2-2.2s2.2,1,2.2,2.2C256.1,244.5,255.1,245.5,253.9,245.5 M265.6,233.2
		c-0.6-1.1-1.4-1.7-2.3-1.7c-3.3,0-1.9,8.8-5.9,8.8c-1.8,0-2.7-1.1-2.7-2.4c0-1.2,0.8-1.6,0.8-2.5c0-1.1-0.8-1.5-1.7-1.5
		c-0.8,0-1.7,0.4-1.7,1.4s1,1.3,1,2.5c0,1.3-1,2.4-2.8,2.4c-4,0-2.7-8.8-5.9-8.8c-0.8,0-1.7,0.6-2.3,1.7c-0.6-1.1-0.9-2.3-1-3.5
		c0-1.6,1.2-3.9,3.9-3.9c4.5,0,3.4,6.2,5.5,6.2c1,0,1.6-0.6,1.6-1.5c0-1.8-3-3.5-3-5.9s2.2-4.6,4.7-6.6c2.5,2.1,4.7,4.2,4.7,6.6
		s-3,4.1-3,5.9c0,0.8,0.6,1.4,1.6,1.4c2.2,0,1.1-6.2,5.6-6.2c2.7,0,3.9,2.3,3.9,3.9C266.6,230.6,266.3,231.9,265.6,233.2 M268,199.9
		c-8.2-2.1-18-5.6-27.1-9.8c0.2-1.9-0.5-4-1.9-5.6c-1.3-1.6-3.3-2.5-5.1-2.5c-0.8,0-1.7,0.1-2.5,0.5c-1.3-1.2-2.6-2.5-3.7-3.9
		c-3.5-4.1-6.3-8.9-8.1-14c-1.1-3-1.8-6.1-2.3-9.3c-0.5,2.7-3.5,6.2-8.6,6.3c0-0.6,0-1.9-0.5-2.1c-1.3,1.6-3.4,3.1-8,1.4
		c0.7,3.6,1.7,7.3,3,10.6c2.8,7.5,6.6,14.1,11.7,19.8c1.7,1.9,3.4,3.6,5.3,5.2c-0.1,0.4-0.1,0.7-0.1,1.1c0,1.9,1.9,5,4.6,6.3
		c2.2,1.1,4.5,0.8,6.6-0.7c4,2.1,9.1,4.1,14.5,5.6c6.2,1.7,12.1,2.7,16.7,2.7c4,0,9.3-1.8,14.5-5.1c2.2-1.3,4.2-2.9,6-4.7
		C279.1,202.3,272.9,201.1,268,199.9 M237.9,187.6l-0.8-0.7c-1.6-1.1-2.9-1.1-4.4,0.1c-0.6,0.6-1.3,1.3-1.8,1.9l-1,1.1l0.6,0.5
		c1.7,1.3,1.9,2.8,1.4,3.6c-0.2,0.4-0.5,0.6-0.8,0.7c-0.8,0.1-2.1-0.1-3.3-0.8l-0.6-0.4l-0.4,0.6c-0.1,0.2-0.2,0.4-0.4,0.5
		c-0.1,0.2-0.2,0.4-0.4,0.6c-0.7,1.3-1.1,2.3-1.1,3v0.6c0.3,1,1.1,1.5,1.7,1.7l0.4,0.4c0.8,0.5,1.8,1.1,2.7,1.4
		c-1.3,0.9-3,1-4.5,0.2c-2.2-1.1-3.7-3.6-3.7-5c0-1.9,1-4.3,2.5-6.9l0.3-0.4l-0.3-0.5c-0.4-0.7-0.8-1.4-1.2-2.2
		c1,0.1,1.8,0.2,2.5,0.5h0.5l0.2-0.2c1.1-1.1,4.5-4.6,7.7-4.6c1.4,0,2.9,0.7,4,2.1c0.8,1,1.3,2.1,1.4,3.1
		C239,188.3,238.4,188,237.9,187.6 M243.2,203.2c-1.9,0-3.5-1.6-3.5-3.5s1.6-3.5,3.5-3.5l0,0c1.9,0,3.5,1.6,3.5,3.5
		S245.1,203.2,243.2,203.2 M258.5,207.9c-1.8,0-3.2-1.4-3.3-3.1c0-1.8,1.4-3.2,3.1-3.3c0.1,0,0.2,0,0.2,0c1.8,0.1,3.1,1.6,3,3.4
		C261.6,206.5,260.2,207.9,258.5,207.9 M258.3,21c-1.8-1.5-3.3-3.5-3.5-5.8c2.2,0.5,4.5,1.9,5.9,3.9V10c-1.5,1.9-3.6,3.3-5.9,3.9
		c0.2-2.3,1.6-4.2,3.4-6.5h-8.7c1.9,2.3,3.3,4.2,3.5,6.5c-2.2-0.5-4.6-1.9-5.9-3.9v9.1c1.3-1.9,3.7-3.4,5.9-3.9
		c-0.4,2.3-1.7,4.4-3.6,5.8H258.3z M245.8,31.8c0.9,3.7,4.2,6.4,8,6.4c4,0,7.2-2.8,8-6.4H245.8z M255.5,28.7h6.4
		c-0.6-3.3-3.1-5.9-6.4-6.6V28.7z M252.1,28.7v-6.6c-3.3,0.6-5.8,3.3-6.4,6.6H252.1z M258.3,40.9c-0.9,0.5-1.9,0.8-2.9,1V53h2.9
		V40.9z M249.5,53h2.9V41.9c-1-0.1-2-0.4-2.9-1V53z M258.9,39c0,1.5,1.2,2.5,2.7,2.5s2.5-1.1,2.5-2.5s-1.1-2.7-2.5-2.7
		C260.1,36.3,258.9,37.5,258.9,39 M267.6,38.7c1.4,0,2.7-1.2,2.7-2.7c0-1.4-1.2-2.5-2.7-2.5c-1.4,0-2.5,1.1-2.5,2.4V36
		C265.1,37.5,266.1,38.7,267.6,38.7 M274,36.8c1.4,0,2.7-1.2,2.7-2.5c0-1.4-1.2-2.7-2.7-2.7c-1.3,0-2.5,1.2-2.5,2.7
		C271.5,35.6,272.7,36.8,274,36.8 M292.4,42.6c1.4,0,2.7-1.1,2.7-2.5c0-1.5-1.2-2.7-2.7-2.7c-1.4,0-2.6,1.2-2.5,2.6l0,0
		C289.8,41.5,290.9,42.6,292.4,42.6 M287.3,38.1c1.4,0,2.7-1.1,2.7-2.5s-1.2-2.7-2.7-2.7c-1.3,0-2.5,1.2-2.5,2.7
		C284.7,37,286,38.1,287.3,38.1 M280.9,36.2c1.4,0,2.5-1.2,2.5-2.7c0-1.4-1.1-2.5-2.5-2.5s-2.7,1.2-2.7,2.5
		C278.2,35,279.4,36.2,280.9,36.2 M294.9,56c-1.5,0-2.7,1.2-2.7,2.7c0,1.4,1.2,2.5,2.7,2.5c1.4,0,2.5-1.1,2.5-2.5
		C297.5,57.2,296.4,56,294.9,56L294.9,56 M296.1,49.7c-1.4,0-2.5,1.1-2.5,2.5s1.1,2.7,2.5,2.7s2.7-1.2,2.7-2.7
		C298.8,50.9,297.6,49.7,296.1,49.7 M292.6,46c0,1.4,1.2,2.7,2.7,2.7c1.4,0,2.5-1.2,2.5-2.7c0-1.4-1.1-2.5-2.4-2.5h-0.1
		C293.8,43.4,292.6,44.5,292.6,46 M246.2,41.5c1.4,0,2.5-1.2,2.5-2.5c0-1.4-1.1-2.7-2.5-2.7c-1.5,0-2.7,1.2-2.7,2.7
		C243.5,40.3,244.8,41.5,246.2,41.5 M240.2,38.7c1.3,0,2.5-1.2,2.5-2.7c0-1.4-1.2-2.5-2.5-2.5c-1.4,0-2.7,1.1-2.7,2.5
		C237.5,37.5,238.7,38.7,240.2,38.7 M233.6,36.8c1.5,0,2.7-1.2,2.7-2.5c0-1.4-1.2-2.7-2.7-2.7c-1.4,0-2.5,1.2-2.5,2.7
		C231.1,35.6,232.2,36.8,233.6,36.8 M215.3,42.6c1.4,0,2.7-1.1,2.7-2.5c0-1.5-1.2-2.7-2.7-2.7c-1.4,0-2.6,1.2-2.5,2.6l0,0
		C212.7,41.5,213.8,42.6,215.3,42.6 M220.3,38.1c1.4,0,2.7-1.1,2.7-2.5s-1.2-2.7-2.7-2.7s-2.5,1.2-2.5,2.7c0,1.4,1.1,2.5,2.4,2.5
		C220.3,38.1,220.3,38.1,220.3,38.1 M226.9,36.2c1.4,0,2.5-1.2,2.5-2.7c0-1.4-1.1-2.5-2.5-2.5c-1.5,0-2.7,1.2-2.7,2.5
		C224.2,35,225.4,36.2,226.9,36.2 M215.4,58.7c0-1.4-1.1-2.7-2.5-2.7c-1.5,0-2.7,1.2-2.7,2.7c0,1.4,1.2,2.5,2.7,2.5
		C214.3,61.2,215.4,60.1,215.4,58.7 M214.2,52.4c0-1.4-1.1-2.6-2.5-2.7h-0.1c-1.4,0-2.5,1.1-2.5,2.7c0,1.4,1.1,2.5,2.5,2.5
		C213,54.9,214.2,53.8,214.2,52.4 M212.5,48.6c1.4,0,2.5-1.2,2.5-2.7c0-1.4-1.1-2.5-2.4-2.5h-0.1c-1.4,0-2.7,1.1-2.7,2.5
		C209.8,47.4,211,48.6,212.5,48.6 M273.2,50.2c1.4,2.9,2.8,4.6,2.7,6.8c-0.3,2.3-2.5,3.9-3.8,6c-1-2.5-2.7-4.5-2.4-6.5
		C269.9,54.4,272.7,51.8,273.2,50.2 M234.6,50.2c-1.4,2.9-2.8,4.6-2.5,6.8c0.1,2.3,2.5,3.9,3.6,6c1-2.5,2.7-4.5,2.4-6.5
		C238,54.4,235.1,51.8,234.6,50.2"/>
</g>
</svg>